<svg width="61" height="60" viewBox="0 0 61 60" fill="none" xmlns="http://www.w3.org/2000/svg">
<g clip-path="url(#clip0_21_2269)">
<path fill-rule="evenodd" clip-rule="evenodd" d="M25.0213 24.3155C26.2036 23.3398 26.3596 23.2612 26.8228 23.4211C27.1375 23.5227 27.4262 23.8968 27.475 24.248C27.5392 24.727 27.3885 24.9216 26.248 25.8628C25.1134 26.799 24.9873 26.853 24.4499 26.664C23.9601 26.4961 23.7205 26.0112 23.8648 25.4806C23.9324 25.2341 24.0181 25.1433 25.0213 24.3155ZM31.3547 25.4328C30.8578 25.2807 30.6969 25.3533 29.5623 26.2895C28.4576 27.2012 28.3389 27.3493 28.3514 27.8509C28.3567 28.1979 28.7065 28.6219 29.055 28.7157C29.5273 28.838 29.7806 28.7192 30.8196 27.8618C31.6437 27.1818 31.7831 27.0467 31.9154 26.7568C32.1609 26.2029 31.9198 25.6189 31.3547 25.4328ZM36.8188 35.2176C36.3287 35.1101 36.1607 35.1985 35.056 36.1102C33.9155 37.0514 33.8137 37.1956 33.8796 37.7134C33.9659 38.3046 34.4778 38.6451 35.0682 38.5091C35.3779 38.4343 35.537 38.323 36.3611 37.643C37.4001 36.7856 37.5647 36.5594 37.5344 36.0725C37.5084 35.7126 37.1585 35.2886 36.8188 35.2176ZM32.4067 30.2361C31.88 30.1086 31.8273 30.1421 29.791 31.8224C28.0414 33.2662 27.915 33.3806 27.8295 33.6419C27.5631 34.4138 28.1051 35.0707 28.9135 34.9556C29.1863 34.9212 29.3226 34.8188 31.0722 33.375C33.1144 31.6897 33.1573 31.6443 33.1163 31.096C33.0913 30.7251 32.7612 30.325 32.4067 30.2361ZM23.549 31.2521C25.4957 29.6457 25.5245 29.632 26.1101 29.8915C26.4741 30.0529 26.6325 30.2935 26.6681 30.7259C26.7045 31.2078 26.5619 31.3756 25.0153 32.6519L23.6061 33.8148L23.8045 33.9823C25.9661 35.7017 27.4739 37.7599 28.4351 40.2992L28.7982 41.2744L30.1417 40.1657C31.3898 39.1358 31.5131 39.0541 31.7809 39.0138C32.0983 38.9727 32.5288 39.1294 32.7259 39.3682C32.8983 39.5772 32.9256 40.0968 32.7853 40.4133C32.679 40.6616 32.462 40.8608 30.9512 42.1075L29.2434 43.5168L29.2993 44.2536C29.4261 45.9156 29.2178 47.804 28.7444 49.359L28.5149 50.0905L29.28 49.5093C30.1396 48.8602 30.3272 48.7957 30.7901 49.016C31.1847 49.2022 31.3665 49.5441 31.3058 50.0058C31.2716 50.305 31.2106 50.4256 30.9068 50.7265C30.7175 50.9228 28.8832 52.4465 26.8442 54.0991C22.8485 57.3461 22.6834 57.4623 21.1177 58.1923C18.7631 59.2922 16.3473 59.7098 13.7523 59.4723C8.29079 58.9603 3.66263 55.4319 1.72749 50.3135C0.0419191 45.8625 0.687304 40.9033 3.4599 36.9892L3.54025 36.8758C3.72584 36.6138 3.87809 36.3988 4.04031 36.1917C4.78096 35.246 5.72961 34.4632 11.0093 30.1068L11.619 29.6037C17.8411 24.4691 18.1685 24.209 18.4075 24.1824C19.1454 24.1155 19.7113 24.7527 19.5158 25.4159C19.4563 25.6357 19.1686 25.8831 16.1598 28.4162L12.8703 31.1809L13.278 31.1155C13.8197 31.0299 15.2641 30.9922 16.1343 31.037L16.829 31.0761L18.8533 29.4056C21.1224 27.5331 21.1343 27.5232 21.7129 27.7986C22.1075 27.9849 22.2893 28.3267 22.2345 28.7835C22.1749 29.2342 22.0513 29.3764 20.5525 30.6132L19.3044 31.6431L19.7567 31.8019C19.9962 31.8853 20.5621 32.121 21.0161 32.3184L21.8292 32.6713L23.549 31.2521ZM26.3108 50.1929C27.8386 46.6435 27.6377 42.6536 25.744 39.2276C25.4541 38.6939 24.0672 36.8672 23.7572 36.6011C23.7226 36.5695 23.6546 36.5087 23.5695 36.4325L23.5692 36.4322L23.5687 36.4318C23.455 36.3299 23.3107 36.2008 23.1749 36.0778C21.0904 34.1844 17.9379 32.9916 15.0542 33.0124C12.104 33.0379 9.53514 33.9633 7.27691 35.8368C5.21679 37.5369 3.95142 39.4945 3.22914 42.0981C2.94471 43.1158 2.75296 45.0607 2.82819 46.1128C2.92945 47.5249 3.30991 49.0077 3.9022 50.3458C4.38667 51.4316 4.7261 51.9646 5.63279 53.0633C6.53948 54.162 6.99834 54.5964 7.97246 55.2782C9.79722 56.5528 11.6456 57.2358 13.874 57.4546C17.2407 57.788 20.2547 56.8668 22.8582 54.7183C24.4396 53.4234 25.535 51.9774 26.3108 50.1929ZM36.1081 44.8784C35.8274 44.7085 35.6234 44.656 35.3556 44.6963C35.0997 44.7268 34.9585 44.8233 34.0031 45.6117C32.7909 46.612 32.688 46.7672 32.832 47.3309C32.94 47.7537 33.2412 47.997 33.706 48.0251C34.1479 48.0619 34.5804 47.7953 35.6327 46.8567C36.3784 46.1912 36.5022 45.9885 36.4607 45.5611C36.4341 45.3221 36.2534 44.9693 36.1081 44.8784ZM6.86446 46.0796V47.1106H8.96549C9.04284 47.4023 9.14031 47.6846 9.2579 47.9575C9.60157 48.7553 10.0803 49.4549 10.694 50.0564C11.3077 50.6455 12.0257 51.1058 12.8481 51.4372C13.6827 51.7563 14.5848 51.9159 15.5545 51.9159C16.561 51.9159 17.4877 51.7441 18.3346 51.4004C19.1815 51.0567 19.8934 50.5535 20.4703 49.8907L19.2919 48.7308C18.7887 49.2586 18.2302 49.6513 17.6165 49.9091C17.0151 50.1546 16.3585 50.2773 15.6465 50.2773C14.9224 50.2773 14.2534 50.1546 13.6397 49.9091C13.0261 49.6636 12.486 49.3199 12.0196 48.8781C11.5654 48.4362 11.2156 47.9146 10.9701 47.3131C10.9434 47.2462 10.9181 47.1787 10.8942 47.1106H16.7512V46.0796H10.6503C10.618 45.8344 10.6019 45.5828 10.6019 45.3247C10.6019 45.0658 10.6181 44.8142 10.6506 44.5699H16.7512V43.5389H10.8994C10.9218 43.4769 10.9453 43.4156 10.9701 43.3548C11.2156 42.7411 11.5654 42.2133 12.0196 41.7714C12.486 41.3295 13.0261 40.9859 13.6397 40.7404C14.2534 40.4949 14.9224 40.3722 15.6465 40.3722C16.3585 40.3722 17.0151 40.501 17.6165 40.7588C18.2302 41.0043 18.7887 41.3848 19.2919 41.9003L20.4703 40.7404C19.8934 40.0776 19.1815 39.5805 18.3346 39.2491C17.4877 38.9054 16.561 38.7336 15.5545 38.7336C14.5848 38.7336 13.6827 38.8993 12.8481 39.2307C12.0257 39.5498 11.3077 40.0101 10.694 40.6115C10.0803 41.2007 9.60157 41.8941 9.2579 42.692C9.14031 42.9649 9.04284 43.2472 8.96549 43.5389H6.86446V44.5699H8.77965C8.75481 44.8157 8.74239 45.0674 8.74239 45.3247C8.74239 45.5821 8.75481 45.8337 8.77965 46.0796H6.86446Z" fill="#1AA5B9"/>
</g>
<defs>
<clipPath id="clip0_21_2269">
<rect width="59.375" height="59.375" fill="white" transform="translate(0.803467 0.161774)"/>
</clipPath>
</defs>
</svg>
