<svg width="69" height="69" viewBox="0 0 69 69" fill="none" xmlns="http://www.w3.org/2000/svg">
<g clip-path="url(#clip0_21_2294)">
<path d="M32.925 0.281223C31.878 0.42701 29.9961 0.917383 29.0683 1.27522C24.1116 3.18371 20.4139 7.63683 19.4066 12.9382C19.1416 14.3298 19.1416 17.2058 19.4066 18.5841C20.4006 23.8059 24.0055 28.2325 28.8298 30.1675C30.937 31.0157 32.1696 31.2543 34.5817 31.2676C36.9806 31.2808 37.8818 31.135 40.0156 30.3928C45.0916 28.6169 48.9881 24.0312 50.0086 18.6239C50.2869 17.2058 50.2869 14.343 50.0219 12.9382C48.8688 6.9079 44.3494 2.13669 38.3722 0.652317C37.3517 0.400503 36.5962 0.30773 35.1781 0.267969C34.1576 0.241463 33.1503 0.254717 32.925 0.281223ZM38.0806 2.64032C43.1036 3.93915 46.9471 7.96817 47.9941 13.0442C48.3519 14.7539 48.2724 17.7756 47.8351 19.2865C47.2254 21.3806 46.0724 23.4878 44.6675 25.0252C43.0639 26.7614 40.5325 28.2723 38.0806 28.9217C36.9408 29.2265 36.5034 29.2663 34.7142 29.2663C32.8985 29.2663 32.5009 29.2265 31.3346 28.9217C26.3116 27.5699 22.5609 23.6601 21.4476 18.5841C21.05 16.8214 21.1428 13.7466 21.6332 12.1297C22.0971 10.5923 22.5477 9.61158 23.3826 8.35251C25.4767 5.17171 28.631 3.09093 32.3949 2.38851C33.9721 2.09693 36.4107 2.20296 38.0806 2.64032Z" fill="#1AA5B9"/>
<path d="M32.6601 4.36326C28.0744 5.26449 24.5225 8.63084 23.449 13.084C23.0911 14.5948 23.0911 16.9539 23.449 18.4648C24.1249 21.2745 25.9009 23.8192 28.313 25.4228C35.1384 29.9555 44.429 26.0988 46.0592 18.0672C46.3508 16.6226 46.258 13.9189 45.8604 12.6068C44.6543 8.56457 41.6723 5.67534 37.5638 4.54881C36.3445 4.21747 33.9059 4.1247 32.6601 4.36326ZM37.524 6.60308C40.2012 7.45129 42.494 9.53207 43.5676 12.09C44.4953 14.2768 44.4953 17.2588 43.5676 19.4588C42.9447 20.9697 41.6591 22.5734 40.2807 23.6071C39.5783 24.124 38.465 24.6674 37.365 24.9987C36.0927 25.3963 33.6541 25.4361 32.3287 25.0782C29.2672 24.2565 26.6695 21.8577 25.6093 18.8227C25.2647 17.8419 25.2382 17.6166 25.2382 15.7744C25.2382 13.9322 25.2647 13.7069 25.6093 12.7261C26.7756 9.42604 29.6781 6.92116 33.0974 6.29825C34.1974 6.08619 36.3975 6.24524 37.524 6.60308Z" fill="#1AA5B9"/>
<path d="M36.3709 14.5816L33.2166 17.9612L32.0106 16.6756C29.9828 14.4888 29.8635 14.3828 29.4925 14.3828C28.9756 14.3828 28.6707 14.5816 28.5117 15.0322C28.3129 15.6021 28.5117 15.8804 30.7515 18.2395C32.5275 20.1082 32.8058 20.3468 33.1769 20.3468C33.4154 20.3468 33.6938 20.2673 33.813 20.1745C33.9323 20.095 35.589 18.3455 37.4842 16.3045C40.6783 12.8852 40.9433 12.5538 40.9433 12.1165C40.9433 11.5201 40.612 11.202 39.9891 11.202C39.5385 11.202 39.3397 11.3875 36.3709 14.5816Z" fill="#1AA5B9"/>
<path d="M11.0835 6.9874C10.7522 7.23922 10.6064 7.76935 10.7522 8.1802C10.845 8.45852 11.3884 8.82962 13.1643 9.86338C15.6824 11.3345 16.08 11.4538 16.5439 10.8574C17.1668 10.0622 16.7957 9.66458 14.0125 8.03442C11.945 6.82836 11.5076 6.68258 11.0835 6.9874Z" fill="#1AA5B9"/>
<path d="M55.3233 8.08744C52.9774 9.47905 52.5401 9.85014 52.6726 10.3935C52.8051 10.9104 53.1365 11.202 53.6003 11.202C53.9449 11.202 56.0124 10.0887 58.2655 8.67059C58.6896 8.40552 58.8487 7.88864 58.6366 7.39827C58.2655 6.52355 57.8282 6.61632 55.3233 8.08744Z" fill="#1AA5B9"/>
<path d="M7.57142 15.0455C7.38587 15.231 7.27985 15.4828 7.27985 15.7744C7.27985 16.066 7.38587 16.3178 7.57142 16.5033C7.84974 16.7551 8.02203 16.7684 10.951 16.7684H14.0523L14.3704 16.4371C14.5559 16.2648 14.7017 15.9599 14.7017 15.7744C14.7017 15.5889 14.5559 15.284 14.3704 15.1117L14.0523 14.7804H10.951C8.02203 14.7804 7.84974 14.7937 7.57142 15.0455Z" fill="#1AA5B9"/>
<path d="M55.0581 15.1117C54.8726 15.284 54.7268 15.5889 54.7268 15.7744C54.7268 15.9599 54.8726 16.2648 55.0581 16.4371L55.3762 16.7684H58.4775C61.4065 16.7684 61.5788 16.7551 61.8571 16.5033C62.0427 16.3178 62.1487 16.066 62.1487 15.7744C62.1487 15.4828 62.0427 15.231 61.8571 15.0455C61.5788 14.7937 61.4065 14.7804 58.4775 14.7804H55.3762L55.0581 15.1117Z" fill="#1AA5B9"/>
<path d="M13.1776 21.6721C10.7522 23.0902 10.5004 23.342 10.7522 24.0842C10.898 24.4951 11.2161 24.7204 11.6534 24.7204C12.0245 24.7204 16.2391 22.242 16.5572 21.8312C16.8885 21.4071 16.8885 21.1287 16.5439 20.6914C16.0801 20.095 15.6692 20.2143 13.1776 21.6721Z" fill="#1AA5B9"/>
<path d="M52.8846 20.6914C52.5135 21.1685 52.54 21.4601 52.9774 21.9239C53.428 22.3878 57.404 24.7204 57.7618 24.7204C58.2124 24.7204 58.4643 24.5614 58.6365 24.1505C58.9679 23.3553 58.7691 23.1432 56.2642 21.6854C53.7461 20.2143 53.3485 20.095 52.8846 20.6914Z" fill="#1AA5B9"/>
<path d="M8.61843 29.3193C8.32686 29.5711 0.785706 49.0536 0.785706 49.5837C0.785706 49.7295 0.918239 49.9813 1.07728 50.1271C1.51464 50.5247 8.75097 53.6127 9.24134 53.6127C9.78473 53.6127 10.063 53.2946 10.4607 52.2211C10.6462 51.7307 10.8317 51.3066 10.8848 51.2801C10.951 51.2271 16.7295 54.4079 16.9018 54.5802C16.9283 54.5935 16.809 54.9645 16.6632 55.4019C16.4247 56.0911 16.4114 56.2899 16.5307 56.8995C16.809 58.2646 17.697 59.1659 19.0223 59.4442C19.5922 59.5635 19.738 59.643 19.738 59.855C19.738 60.9286 21.3947 62.3599 22.6405 62.3599C22.8393 62.3599 22.9188 62.4394 22.9188 62.6515C22.9188 63.1419 23.6477 64.2684 24.2044 64.6527C24.4827 64.8515 24.9996 65.0636 25.3442 65.1299C26.0863 65.2624 26.0068 65.1961 26.2056 65.8721C26.537 67.0251 27.9021 68.0589 29.0816 68.0589C30.0889 68.0589 30.619 67.807 31.56 66.9058C32.1166 66.3492 32.5275 66.0709 32.6468 66.1106C32.7528 66.1504 33.2432 66.4817 33.7468 66.8395C34.2372 67.1974 34.8468 67.5552 35.0986 67.648C35.7878 67.8733 37.0866 67.8203 37.7228 67.542C38.4915 67.1841 39.3132 66.2962 39.5915 65.5142L39.8168 64.8515L40.3735 64.9311C41.0891 65.0238 42.1229 64.7455 42.8253 64.2684C43.4482 63.831 44.0844 62.9166 44.2037 62.2671L44.2832 61.8298L44.9194 61.9093C46.4302 62.1081 48.2062 60.9816 48.6303 59.537L48.8158 58.914H49.6243C51.6521 58.914 53.322 57.0851 53.0967 55.0971L53.0304 54.5139L55.8799 53.1356C57.4438 52.3801 58.7426 51.7572 58.7691 51.7572C58.7956 51.7572 58.9149 52.0356 59.0474 52.3934C59.3523 53.2284 59.7233 53.6127 60.1872 53.6127C60.3993 53.6127 62.2547 52.897 64.309 52.0223C67.9934 50.4452 68.6429 50.0741 68.6429 49.5307C68.6429 49.4114 66.9464 44.8655 64.8656 39.4316C62.3343 32.8315 60.9957 29.4784 60.8101 29.3193C60.6511 29.2 60.3993 29.094 60.2402 29.1073C60.0944 29.1073 58.1197 29.7832 55.8534 30.5916C51.0292 32.3411 51.1352 32.2616 51.6653 33.6267C52.2087 35.0978 52.4075 34.846 49.5315 36.2243C48.1267 36.9002 46.8676 37.4436 46.7218 37.4436C46.5893 37.4436 44.588 37.0858 42.2819 36.6617C36.9673 35.6677 37.0734 35.6809 35.9999 35.8532C34.8203 36.0388 33.813 36.5026 32.6335 37.3774C32.1034 37.775 31.6395 38.1063 31.5865 38.1063C31.5467 38.1063 31.2286 37.9075 30.8841 37.6557C28.6973 36.0653 27.0008 35.893 23.6212 36.9135L21.7393 37.4834L19.5524 36.1846C18.3464 35.4689 17.3524 34.846 17.3524 34.7929C17.3524 34.7399 17.4982 34.3423 17.6837 33.8917C17.8693 33.4411 18.0151 32.964 18.0151 32.8182C18.0151 32.2351 17.5777 32.023 13.4559 30.5519C11.2028 29.7434 9.2546 29.094 9.13531 29.094C9.00278 29.094 8.77747 29.2 8.61843 29.3193ZM11.3619 31.9567C11.3884 31.97 10.6992 34.0375 9.81124 36.5424C8.92326 39.0473 8.20758 41.2076 8.20758 41.3534C8.20758 42.069 8.98953 42.4931 9.63894 42.1618C9.98353 41.9895 10.1691 41.5389 11.6402 37.3243C12.5414 34.7664 13.3234 32.6724 13.3896 32.6724C13.5619 32.6724 15.4174 33.3616 15.5499 33.4809C15.6295 33.5471 14.2246 37.2713 12.1836 42.4401C10.2619 47.3041 8.6847 51.3066 8.67145 51.3331C8.64494 51.3729 3.58216 49.2126 3.25083 49.0138C3.10504 48.9343 3.68819 47.2644 6.33886 40.3594C8.14131 35.6544 9.6522 31.7049 9.70521 31.5856C9.78473 31.3603 9.83774 31.3603 10.5534 31.6254C10.9775 31.7844 11.3486 31.9302 11.3619 31.9567ZM62.9174 39.8955C64.6668 44.4811 66.1645 48.4041 66.244 48.5897L66.3765 48.9475L63.5801 50.1536C62.0427 50.8295 60.7704 51.3464 60.7571 51.3331C60.7439 51.3066 59.1667 47.3041 57.245 42.4401C55.1907 37.2448 53.7991 33.5471 53.8786 33.4809C54.0112 33.3616 55.8666 32.6724 56.0389 32.6724C56.1052 32.6724 56.8871 34.7664 57.7884 37.3243C59.2595 41.5389 59.445 41.9895 59.7896 42.1618C60.439 42.4931 61.221 42.069 61.221 41.3666C61.221 41.2208 60.5053 39.0605 59.6173 36.5424C58.7426 34.0375 58.0402 31.97 58.0667 31.9567C58.2257 31.8109 59.5776 31.3868 59.6438 31.4531C59.6968 31.5061 61.168 35.2966 62.9174 39.8955ZM18.9826 38.1726C20.2549 38.9412 21.4079 39.5642 21.5404 39.5642C21.6862 39.5642 22.6935 39.2858 23.7803 38.9545C26.0466 38.2653 26.9743 38.1328 27.9286 38.3714C28.6442 38.5304 29.8636 39.2328 29.784 39.4184C29.7575 39.4846 28.6442 40.3461 27.2924 41.3401C25.9406 42.3341 24.5887 43.3944 24.2839 43.6727C23.3031 44.6137 23.0646 46.0981 23.7007 47.3571C24.3767 48.6825 26.3647 49.5572 27.9816 49.2524C29.0286 49.0668 29.2406 48.9608 31.4009 47.5957C32.4877 46.8933 33.5082 46.2703 33.6408 46.1908C33.8793 46.0715 33.9588 46.1378 34.3564 46.7475C35.0191 47.768 36.0396 48.656 37.1927 49.1993C38.1071 49.6367 38.3192 49.6897 39.6313 49.7427C40.7843 49.7957 41.2879 49.7427 42.2952 49.5042L43.541 49.2126L46.9206 51.6247C48.7761 52.9633 50.446 54.1959 50.6448 54.3814C51.3472 55.0308 51.2412 56.1839 50.4328 56.6742C49.6376 57.1646 49.0279 56.9791 47.7688 55.8393C46.4302 54.6465 45.7013 54.1428 45.3037 54.1428C44.7736 54.1428 44.3892 54.5669 44.3892 55.1236C44.3892 55.5477 44.5085 55.6802 45.5158 56.5284C46.8543 57.655 47.0929 58.1851 46.6821 59.0201C46.3905 59.6297 45.635 60.0406 45.0519 59.908C44.8398 59.855 44.0844 59.4044 43.3687 58.9008C42.0036 57.9333 41.5795 57.8008 41.1024 58.2116C40.9434 58.3441 40.7843 58.6225 40.7313 58.8213C40.6518 59.1526 40.7313 59.2719 41.394 59.8815C42.2157 60.6502 42.4675 61.2201 42.2554 61.8033C42.0566 62.3202 41.6325 62.731 41.1289 62.89C40.5325 63.0888 40.0421 62.8503 38.8228 61.7768C37.7228 60.8093 37.2059 60.6635 36.7023 61.1671C36.2384 61.631 36.3577 62.1744 37.0866 62.8768C38.0939 63.8443 38.1204 64.772 37.1529 65.5275C36.5565 65.9913 35.8276 65.9118 34.9661 65.2624C34.5685 64.9708 34.1709 64.6792 34.0649 64.6262C33.9191 64.5335 33.9323 64.4407 34.1311 64.0696C34.4625 63.4202 34.4492 62.1744 34.0914 61.4984C33.5745 60.5044 32.7793 59.908 31.772 59.7358C31.2817 59.643 31.2154 59.59 31.0696 59.1128C30.7383 57.9731 29.8901 57.1779 28.6973 56.9128C28.0213 56.767 27.9948 56.7405 27.8358 56.1441C27.5442 55.0706 26.1659 54.0103 25.0526 54.0103C24.8538 54.0103 24.7743 53.9308 24.7743 53.7055C24.7743 53.5464 24.5887 53.0958 24.3767 52.7247C23.82 51.744 22.9055 51.2271 21.7525 51.2271C20.679 51.2271 20.1621 51.4524 19.2211 52.3536C18.797 52.7512 18.4259 53.0826 18.3862 53.0826C18.3199 53.0826 11.786 49.4114 11.6932 49.3186C11.6535 49.2789 12.6872 46.5884 13.9728 43.3149C15.2584 40.0545 16.3716 37.2448 16.4379 37.0725C16.5042 36.9135 16.5837 36.781 16.6102 36.781C16.65 36.781 17.7102 37.4039 18.9826 38.1726ZM55.4558 43.2883C56.8474 46.8005 57.9872 49.7162 58.0137 49.756C58.0269 49.809 56.6751 50.5247 55.0184 51.3464L51.9834 52.844L48.0206 49.9813C43.541 46.7475 44.0181 46.933 42.0699 47.5029C40.7976 47.8608 39.2072 47.874 38.2397 47.5029C37.1264 47.0921 36.2649 46.2306 35.642 44.9185C35.1251 43.845 34.8468 43.5402 34.3697 43.5402C34.2372 43.5402 32.8323 44.3486 31.2419 45.3426C29.5852 46.3764 28.1274 47.1981 27.8093 47.2644C26.8948 47.4764 25.755 47.0523 25.4634 46.3764C25.2381 45.8993 25.2646 45.6077 25.5562 45.2366C25.9803 44.7065 34.7805 38.2521 35.4035 38.0135C36.3975 37.6424 37.5372 37.7484 42.4542 38.6894L47.0664 39.5774L48.4845 38.9147C49.2532 38.5569 50.5123 37.9605 51.281 37.5894C52.0497 37.2183 52.7388 36.9135 52.8051 36.9135C52.8846 36.9135 54.0774 39.7895 55.4558 43.2883ZM22.4814 53.5067C22.7067 53.7055 22.7863 53.944 22.7863 54.3284C22.7863 54.8188 22.7067 54.938 21.4874 56.1573C20.2681 57.3767 20.1488 57.4562 19.6585 57.4562C19.0091 57.4562 18.5319 57.0321 18.5187 56.4357C18.5054 55.879 18.6512 55.667 19.9766 54.3681C21.0501 53.3211 21.2091 53.2151 21.673 53.2151C22.0043 53.2151 22.2694 53.3079 22.4814 53.5067ZM25.7418 56.4092C25.861 56.5682 25.9671 56.9128 25.9671 57.1779C25.9671 57.6285 25.8478 57.7875 24.5887 59.0201C23.3827 60.2129 23.1706 60.3719 22.7598 60.3719C22.1501 60.3719 21.673 59.8815 21.673 59.2321C21.673 58.808 21.8188 58.6225 23.0911 57.3634C24.4827 55.9851 24.5092 55.9585 24.9996 56.0381C25.2779 56.0911 25.6092 56.2501 25.7418 56.4092ZM28.8961 59.1659C29.5985 59.8815 29.3997 60.3719 27.7033 62.0021C26.6562 63.0093 26.4442 63.1551 26.0333 63.1551C25.3839 63.1551 24.9068 62.678 24.9068 62.0286C24.9068 61.6177 25.0526 61.4057 26.0068 60.4117C27.6635 58.6755 28.1804 58.4502 28.8961 59.1659ZM31.9973 62.0021C32.2624 62.2141 32.3552 62.4394 32.3684 62.7973C32.3817 63.2611 32.2757 63.3937 31.0564 64.6262C30.3407 65.3552 29.6117 65.9781 29.4527 66.0178C28.7768 66.1901 28.0876 65.6335 28.0876 64.8913C28.0876 64.4804 28.2334 64.2816 29.4527 63.0623C30.9636 61.5515 31.3082 61.4057 31.9973 62.0021Z" fill="#1AA5B9"/>
</g>
<defs>
<clipPath id="clip0_21_2294">
<rect width="67.8571" height="67.8571" fill="white" transform="translate(0.785706 0.201706)"/>
</clipPath>
</defs>
</svg>
