<svg width="69" height="69" viewBox="0 0 69 69" fill="none" xmlns="http://www.w3.org/2000/svg">
<g clip-path="url(#clip0_21_2308)">
<path d="M8.57211 29.0319C8.28054 29.2837 0.73938 48.7661 0.73938 49.2963C0.73938 49.4421 0.871913 49.6939 1.03095 49.8397C1.46831 50.2373 8.70464 53.3253 9.19502 53.3253C9.7384 53.3253 10.0167 53.0072 10.4143 51.9337C10.5999 51.4433 10.7854 51.0192 10.8384 50.9927C10.9047 50.9397 16.6832 54.1205 16.8555 54.2928C16.882 54.306 16.7627 54.6771 16.6169 55.1145C16.3783 55.8037 16.3651 56.0025 16.4844 56.6121C16.7627 57.9772 17.6507 58.8784 18.976 59.1568C19.5459 59.276 19.6917 59.3556 19.6917 59.5676C19.6917 60.6411 21.3483 62.0725 22.5942 62.0725C22.793 62.0725 22.8725 62.152 22.8725 62.3641C22.8725 62.8544 23.6014 63.981 24.158 64.3653C24.4364 64.5641 24.9532 64.7762 25.2978 64.8424C26.04 64.975 25.9605 64.9087 26.1593 65.5846C26.4906 66.7377 27.8557 67.7714 29.0353 67.7714C30.0425 67.7714 30.5727 67.5196 31.5137 66.6184C32.0703 66.0618 32.4811 65.7834 32.6004 65.8232C32.7065 65.863 33.1968 66.1943 33.7005 66.5521C34.1908 66.91 34.8005 67.2678 35.0523 67.3606C35.7415 67.5859 37.0403 67.5329 37.6765 67.2546C38.4452 66.8967 39.2669 66.0087 39.5452 65.2268L39.7705 64.5641L40.3271 64.6436C41.0428 64.7364 42.0766 64.4581 42.779 63.981C43.4019 63.5436 44.0381 62.6291 44.1574 61.9797L44.2369 61.5424L44.873 61.6219C46.3839 61.8207 48.1599 60.6942 48.584 59.2495L48.7695 58.6266H49.578C51.6057 58.6266 53.2757 56.7977 53.0503 54.8097L52.9841 54.2265L55.8335 52.8482C57.3974 52.0927 58.6963 51.4698 58.7228 51.4698C58.7493 51.4698 58.8686 51.7481 59.0011 52.106C59.3059 52.9409 59.677 53.3253 60.1409 53.3253C60.3529 53.3253 62.2084 52.6096 64.2627 51.7349C67.9471 50.1577 68.5965 49.7866 68.5965 49.2433C68.5965 49.124 66.9001 44.5781 64.8193 39.1442C62.2879 32.544 60.9493 29.1909 60.7638 29.0319C60.6048 28.9126 60.3529 28.8066 60.1939 28.8198C60.0481 28.8198 58.0734 29.4958 55.807 30.3042C50.9828 32.0537 51.0889 31.9741 51.619 33.3392C52.1624 34.8104 52.3612 34.5585 49.4852 35.9369C48.0803 36.6128 46.8213 37.1562 46.6755 37.1562C46.543 37.1562 44.5417 36.7984 42.2356 36.3743C36.921 35.3803 37.0271 35.3935 35.9535 35.5658C34.774 35.7514 33.7667 36.2152 32.5872 37.0899C32.057 37.4875 31.5932 37.8189 31.5402 37.8189C31.5004 37.8189 31.1823 37.6201 30.8377 37.3683C28.6509 35.7779 26.9545 35.6056 23.5749 36.6261L21.6929 37.196L19.5061 35.8971C18.3001 35.1815 17.3061 34.5585 17.3061 34.5055C17.3061 34.4525 17.4519 34.0549 17.6374 33.6043C17.8229 33.1537 17.9687 32.6766 17.9687 32.5308C17.9687 31.9476 17.5314 31.7356 13.4096 30.2645C11.1565 29.456 9.20827 28.8066 9.08899 28.8066C8.95646 28.8066 8.73115 28.9126 8.57211 29.0319ZM11.3156 31.6693C11.3421 31.6826 10.6529 33.7501 9.76491 36.255C8.87694 38.7599 8.16126 40.9202 8.16126 41.0659C8.16126 41.7816 8.9432 42.2057 9.59262 41.8744C9.9372 41.7021 10.1228 41.2515 11.5939 37.0369C12.4951 34.479 13.277 32.385 13.3433 32.385C13.5156 32.385 15.3711 33.0742 15.5036 33.1935C15.5831 33.2597 14.1783 36.9839 12.1373 42.1527C10.2155 47.0167 8.63838 51.0192 8.62512 51.0457C8.59862 51.0855 3.53584 48.9252 3.2045 48.7264C3.05872 48.6469 3.64186 46.9769 6.29253 40.0719C8.09499 35.367 9.60587 31.4175 9.65888 31.2982C9.7384 31.0729 9.79142 31.0729 10.5071 31.338C10.9312 31.497 11.3023 31.6428 11.3156 31.6693ZM62.8711 39.6081C64.6205 44.1937 66.1181 48.1167 66.1977 48.3023L66.3302 48.6601L63.5337 49.8662C61.9964 50.5421 60.724 51.059 60.7108 51.0457C60.6975 51.0192 59.1204 47.0167 57.1986 42.1527C55.1444 36.9574 53.7528 33.2597 53.8323 33.1935C53.9648 33.0742 55.8203 32.385 55.9926 32.385C56.0589 32.385 56.8408 34.479 57.742 37.0369C59.2132 41.2515 59.3987 41.7021 59.7433 41.8744C60.3927 42.2057 61.1747 41.7816 61.1747 41.0792C61.1747 40.9334 60.459 38.7731 59.571 36.255C58.6963 33.7501 57.9938 31.6826 58.0204 31.6693C58.1794 31.5235 59.5312 31.0994 59.5975 31.1657C59.6505 31.2187 61.1216 35.0092 62.8711 39.6081ZM18.9362 37.8851C20.2085 38.6538 21.3616 39.2767 21.4941 39.2767C21.6399 39.2767 22.6472 38.9984 23.7339 38.6671C26.0003 37.9779 26.928 37.8454 27.8822 38.0839C28.5979 38.243 29.8172 38.9454 29.7377 39.131C29.7112 39.1972 28.5979 40.0587 27.2461 41.0527C25.8942 42.0467 24.5424 43.107 24.2376 43.3853C23.2568 44.3263 23.0183 45.8106 23.6544 47.0697C24.3303 48.395 26.3183 49.2698 27.9353 48.9649C28.9823 48.7794 29.1943 48.6734 31.3546 47.3083C32.4414 46.6058 33.4619 45.9829 33.5944 45.9034C33.833 45.7841 33.9125 45.8504 34.3101 46.4601C34.9728 47.4806 35.9933 48.3685 37.1463 48.9119C38.0608 49.3493 38.2729 49.4023 39.5849 49.4553C40.738 49.5083 41.2416 49.4553 42.2489 49.2168L43.4947 48.9252L46.8743 51.3373C48.7298 52.6759 50.3997 53.9084 50.5985 54.094C51.3009 54.7434 51.1949 55.8964 50.3864 56.3868C49.5912 56.8772 48.9816 56.6916 47.7225 55.5519C46.3839 54.3591 45.655 53.8554 45.2574 53.8554C44.7272 53.8554 44.3429 54.2795 44.3429 54.8362C44.3429 55.2603 44.4622 55.3928 45.4694 56.241C46.808 57.3676 47.0466 57.8977 46.6357 58.7327C46.3442 59.3423 45.5887 59.7532 45.0056 59.6206C44.7935 59.5676 44.0381 59.117 43.3224 58.6134C41.9573 57.6459 41.5332 57.5133 41.0561 57.9242C40.897 58.0567 40.738 58.3351 40.685 58.5339C40.6055 58.8652 40.685 58.9845 41.3476 59.5941C42.1693 60.3628 42.4212 60.9327 42.2091 61.5159C42.0103 62.0327 41.5862 62.4436 41.0826 62.6026C40.4862 62.8014 39.9958 62.5629 38.7765 61.4894C37.6765 60.5219 37.1596 60.3761 36.656 60.8797C36.1921 61.3436 36.3114 61.887 37.0403 62.5894C38.0476 63.5569 38.0741 64.4846 37.1066 65.24C36.5102 65.7039 35.7812 65.6244 34.9198 64.975C34.5222 64.6834 34.1246 64.3918 34.0185 64.3388C33.8728 64.246 33.886 64.1533 34.0848 63.7822C34.4161 63.1328 34.4029 61.887 34.045 61.211C33.5282 60.217 32.733 59.6206 31.7257 59.4483C31.2353 59.3556 31.1691 59.3025 31.0233 58.8254C30.6919 57.6856 29.8437 56.8904 28.6509 56.6254C27.975 56.4796 27.9485 56.4531 27.7895 55.8567C27.4979 54.7832 26.1195 53.7229 25.0063 53.7229C24.8075 53.7229 24.7279 53.6434 24.7279 53.4181C24.7279 53.259 24.5424 52.8084 24.3303 52.4373C23.7737 51.4566 22.8592 50.9397 21.7062 50.9397C20.6327 50.9397 20.1158 51.165 19.1748 52.0662C18.7507 52.4638 18.3796 52.7952 18.3398 52.7952C18.2736 52.7952 11.7397 49.124 11.6469 49.0312C11.6071 48.9914 12.6409 46.301 13.9265 43.0274C15.212 39.7671 16.3253 36.9574 16.3916 36.7851C16.4579 36.6261 16.5374 36.4935 16.5639 36.4935C16.6036 36.4935 17.6639 37.1164 18.9362 37.8851ZM55.4094 43.0009C56.801 46.5131 57.9408 49.4288 57.9673 49.4686C57.9806 49.5216 56.6288 50.2373 54.9721 51.059L51.9371 52.5566L47.9743 49.6939C43.4947 46.4601 43.9718 46.6456 42.0236 47.2155C40.7512 47.5733 39.1608 47.5866 38.1933 47.2155C37.0801 46.8046 36.2186 45.9432 35.5957 44.6311C35.0788 43.5576 34.8005 43.2527 34.3234 43.2527C34.1908 43.2527 32.786 44.0612 31.1956 45.0552C29.5389 46.089 28.081 46.9107 27.763 46.9769C26.8485 47.189 25.7087 46.7649 25.4171 46.089C25.1918 45.6118 25.2183 45.3203 25.5099 44.9492C25.934 44.419 34.7342 37.9647 35.3571 37.7261C36.3511 37.355 37.4909 37.461 42.4079 38.402L47.0201 39.29L48.4382 38.6273C49.2069 38.2695 50.4659 37.6731 51.2346 37.302C52.0033 36.9309 52.6925 36.6261 52.7588 36.6261C52.8383 36.6261 54.0311 39.502 55.4094 43.0009ZM22.4351 53.2193C22.6604 53.4181 22.7399 53.6566 22.7399 54.041C22.7399 54.5313 22.6604 54.6506 21.4411 55.8699C20.2218 57.0892 20.1025 57.1688 19.6121 57.1688C18.9627 57.1688 18.4856 56.7447 18.4724 56.1483C18.4591 55.5916 18.6049 55.3796 19.9302 54.0807C21.0037 53.0337 21.1628 52.9277 21.6267 52.9277C21.958 52.9277 22.2231 53.0205 22.4351 53.2193ZM25.6954 56.1217C25.8147 56.2808 25.9207 56.6254 25.9207 56.8904C25.9207 57.3411 25.8015 57.5001 24.5424 58.7327C23.3363 59.9255 23.1243 60.0845 22.7134 60.0845C22.1038 60.0845 21.6267 59.5941 21.6267 58.9447C21.6267 58.5206 21.7724 58.3351 23.0448 57.076C24.4364 55.6976 24.4629 55.6711 24.9532 55.7507C25.2316 55.8037 25.5629 55.9627 25.6954 56.1217ZM28.8497 58.8784C29.5522 59.5941 29.3534 60.0845 27.6569 61.7147C26.6099 62.7219 26.3979 62.8677 25.987 62.8677C25.3376 62.8677 24.8605 62.3906 24.8605 61.7412C24.8605 61.3303 25.0063 61.1183 25.9605 60.1243C27.6172 58.3881 28.1341 58.1628 28.8497 58.8784ZM31.951 61.7147C32.2161 61.9267 32.3089 62.152 32.3221 62.5099C32.3354 62.9737 32.2293 63.1063 31.01 64.3388C30.2943 65.0678 29.5654 65.6907 29.4064 65.7304C28.7305 65.9027 28.0413 65.3461 28.0413 64.6039C28.0413 64.193 28.1871 63.9942 29.4064 62.7749C30.9173 61.264 31.2618 61.1183 31.951 61.7147Z" fill="#1AA5B9"/>
<path d="M20.6088 -0.0252969L12.2737 0.019192C11.5261 0.0231825 10.9213 0.634527 10.9253 1.38214L10.9296 2.18553C10.9335 2.93315 11.5449 3.538 12.2925 3.53401L12.4431 3.53321L12.5325 20.2663C12.5379 21.2913 12.9642 22.2565 13.7327 22.9838C14.4982 23.7085 15.5058 24.1043 16.57 24.0986C17.6341 24.0929 18.6375 23.6864 19.3952 22.9535C20.1559 22.2181 20.5718 21.2484 20.5664 20.2234L20.4771 3.49032L20.6277 3.48952C21.3753 3.48553 21.9802 2.87419 21.9762 2.12657L21.9719 1.32318C21.9679 0.575565 21.3566 -0.0292879 20.6089 -0.0252975L20.6088 -0.0252969ZM20.0641 20.226C20.074 22.0741 18.5052 23.586 16.5672 23.5964C14.6292 23.6067 13.0444 22.1117 13.0345 20.2635L12.9452 3.53043L19.9746 3.49291L20.0641 20.226ZM21.4739 2.12921C21.4764 2.59995 21.0956 2.98487 20.6249 2.98738L12.2898 3.03187C11.819 3.03438 11.4341 2.65356 11.4316 2.18281L11.4273 1.37942C11.4248 0.908674 11.8056 0.523756 12.2764 0.521244L20.6115 0.476755C21.0822 0.474242 21.4671 0.855063 21.4696 1.32581L21.4739 2.12921Z" fill="#1AA5B9" stroke="#1AA5B9" stroke-width="0.894837"/>
<path d="M15.5 11.5513C16.3309 11.5468 17.0032 10.8673 16.9988 10.0364C16.9943 9.20554 16.3148 8.53322 15.4839 8.53766C14.653 8.54209 13.9807 9.22163 13.9852 10.0525C13.9896 10.8834 14.6691 11.5557 15.5 11.5513ZM15.4866 9.03986C16.0405 9.03691 16.4935 9.48511 16.4965 10.039C16.4995 10.593 16.0513 11.046 15.4973 11.049C14.9434 11.0519 14.4904 10.6037 14.4874 10.0498C14.4844 9.49584 14.9327 9.04282 15.4866 9.03986Z" fill="#1AA5B9" stroke="#1AA5B9" stroke-width="0.894837"/>
<path d="M17.5133 12.5441C16.6826 12.5486 16.0112 13.3405 16.0163 14.3096C16.0215 15.2787 16.7014 16.0634 17.5321 16.0589C18.3627 16.0545 19.0342 15.2626 19.029 14.2935C19.0238 13.3244 18.3439 12.5397 17.5133 12.5441ZM17.5294 15.5569C16.9756 15.5598 16.5221 14.9991 16.5184 14.3069C16.5147 13.6147 16.9622 13.0492 17.516 13.0462C18.0697 13.0433 18.5232 13.604 18.5269 14.2962C18.5306 14.9884 18.0831 15.5539 17.5294 15.5569Z" fill="#1AA5B9" stroke="#1AA5B9" stroke-width="0.894837"/>
<path d="M16.5374 18.0736C15.7067 18.078 15.0353 18.8699 15.0404 19.839C15.0456 20.8081 15.7255 21.5928 16.5562 21.5884C17.3868 21.5839 18.0583 20.792 18.0531 19.8229C18.048 18.8539 17.368 18.0691 16.5374 18.0736ZM16.5535 21.0863C15.9997 21.0892 15.5462 20.5285 15.5425 19.8363C15.5389 19.1441 15.9863 18.5786 16.5401 18.5757C17.0939 18.5727 17.5473 19.1334 17.551 19.8256C17.5547 20.5178 17.1073 21.0833 16.5535 21.0863Z" fill="#1AA5B9" stroke="#1AA5B9" stroke-width="0.894837"/>
<path d="M17.738 7.52307C18.4304 7.51937 18.9901 6.84044 18.9856 6.00957C18.9812 5.1787 18.4143 4.50578 17.7219 4.50947C17.0295 4.51317 16.4698 5.1921 16.4742 6.02297C16.4787 6.85384 17.0456 7.52676 17.738 7.52307ZM17.7246 5.01168C18.14 5.00946 18.4804 5.45827 18.4833 6.0122C18.4863 6.56614 18.1507 7.01855 17.7353 7.02077C17.3198 7.02299 16.9795 6.57418 16.9765 6.02025C16.9736 5.46631 17.3091 5.01389 17.7246 5.01168Z" fill="#1AA5B9" stroke="#1AA5B9" stroke-width="0.894837"/>
<path d="M49.1118 28.281H45.6305C45.4217 27.6022 45.1477 26.9378 44.8127 26.2953L47.2723 23.8349C47.5605 23.5468 47.5605 23.0801 47.2723 22.7915L43.3543 18.8735C43.0661 18.5853 42.5994 18.5853 42.3109 18.8735L39.8506 21.3332C39.208 20.9982 38.5437 20.7245 37.8649 20.5154V17.0341C37.8649 16.6263 37.5349 16.2963 37.1271 16.2963H31.5854C31.1776 16.2963 30.8476 16.6263 30.8476 17.0341V20.5154C30.1688 20.7242 29.5045 20.9982 28.8619 21.3332L26.4016 18.8735C26.1134 18.5853 25.6467 18.5853 25.3582 18.8735L21.4402 22.7915C21.152 23.0797 21.152 23.5464 21.4402 23.8349L23.8998 26.2953C23.5648 26.9378 23.2912 27.6021 23.082 28.281H19.6007C19.193 28.281 18.863 28.611 18.863 29.0187V31.7896C18.863 32.1973 19.193 32.5273 19.6007 32.5273H41.7334H49.111C49.5187 32.5273 49.8487 32.1973 49.8487 31.7896V29.0187C49.8494 28.611 49.5194 28.281 49.1116 28.281H49.1118ZM27.8248 30.6312C29.3233 23.1312 39.9324 23.478 40.9526 31.0522L27.7598 31.0518C27.7757 30.9099 27.7997 30.7706 27.8244 30.6312H27.8248ZM48.374 31.0518H42.4387C41.2358 21.2721 27.4728 21.2789 26.2746 31.0518H20.3396V29.7565H23.6431C23.981 29.7565 24.2758 29.5266 24.3584 29.1996C24.5903 28.2804 24.9585 27.3854 25.4523 26.5381C25.6216 26.2486 25.5741 25.8817 25.337 25.6448L23.0061 23.3134L25.8807 20.4387L28.2122 22.7696C28.4487 23.0061 28.8159 23.0542 29.1054 22.8849C29.9526 22.3915 30.8474 22.0233 31.7669 21.7911C32.094 21.7081 32.3239 21.4136 32.3239 21.0757V17.7722H36.3901V21.0757C36.3901 21.4136 36.62 21.7084 36.9471 21.7911C37.8663 22.0229 38.7612 22.3912 39.6086 22.8849C39.8974 23.0542 40.265 23.0061 40.5018 22.7696L42.8333 20.4387L45.7079 23.3134L43.377 25.6448C43.1399 25.882 43.0925 26.2486 43.2618 26.5381C43.7551 27.3852 44.1234 28.28 44.3556 29.1996C44.4386 29.5266 44.733 29.7565 45.0709 29.7565H48.3744L48.374 31.0518Z" fill="#1AA5B9" stroke="#1AA5B9" stroke-width="0.447418"/>
<path d="M61.1169 20.1225L55.7543 17.1721C54.6288 16.5483 53.9293 15.368 53.9293 14.092L53.9296 5.71583C58.0064 6.09953 58.5247 0.311406 54.4483 0.0673981H45.2504C44.4919 0.0673981 43.7814 0.360528 43.2496 0.892438C41.3038 2.90285 43.0345 6.06263 45.7692 5.71585V14.092C45.7692 15.1332 45.3058 16.1179 44.4982 16.7953C44.1863 17.0575 44.1451 17.5229 44.4067 17.8351C44.6688 18.1477 45.1335 18.1875 45.4464 17.9267C46.589 16.9676 47.2447 15.5708 47.2447 14.0923V5.71879H52.4538V14.092C52.4538 15.9041 53.4445 17.5792 55.0409 18.4639L60.4048 21.415C61.1748 21.8392 61.6534 22.6491 61.6534 23.5281C61.6534 24.8586 60.5675 25.9409 59.2333 25.9409H50.897C49.9313 25.9538 49.9244 27.4012 50.897 27.4164H59.2333C63.2241 27.4115 64.6074 22.0499 61.1165 20.1225L61.1169 20.1225ZM43.8989 2.89187C43.8874 2.16202 44.5187 1.52731 45.2512 1.54316H54.4491C55.1948 1.54316 55.8015 2.14852 55.8015 2.89187C55.8015 3.63555 55.1948 4.24057 54.4491 4.24057H45.2512C44.5055 4.24057 43.8989 3.63554 43.8989 2.89187Z" fill="#1AA5B9" stroke="#1AA5B9" stroke-width="0.447418"/>
</g>
<defs>
<clipPath id="clip0_21_2308">
<rect width="67.8571" height="67.8571" fill="white" transform="translate(0.739075 0.201721)"/>
</clipPath>
</defs>
</svg>
