<svg width="60" height="61" viewBox="0 0 60 61" fill="none" xmlns="http://www.w3.org/2000/svg">
<path d="M34.0362 27.4935V39.6862C34.0362 39.9834 34.1911 40.261 34.4476 40.4253C34.6004 40.5231 34.7784 40.5732 34.9572 40.5732C35.0783 40.5732 35.2003 40.5502 35.3149 40.5034L43.8077 37.0565C44.1493 36.9177 44.3711 36.5959 44.3711 36.2389V27.4937L59.3187 13.2753C59.4936 13.1085 59.593 12.8815 59.593 12.6441V5.96649C59.593 5.47659 59.1807 5.07947 58.672 5.07947H56.8077C56.3685 2.60112 54.1236 0.707902 51.4263 0.707902C48.7291 0.707902 46.4845 2.60102 46.0448 5.07947H44.5864C44.1458 2.60069 41.9013 0.707153 39.204 0.707153C36.5068 0.707153 34.2623 2.60027 33.8226 5.07872H32.3641C31.9249 2.60037 29.68 0.707153 26.9827 0.707153C24.2854 0.707153 22.0409 2.60027 21.6012 5.07872H19.737C19.2283 5.07872 18.8159 5.47583 18.8159 5.96574V12.6438C18.8159 12.8808 18.9144 13.1082 19.0902 13.275L34.0362 27.4935ZM42.8024 26.4915C42.6275 26.6583 42.5281 26.8853 42.5281 27.1227V35.6501L35.8783 38.3492V27.1228C35.8783 26.8858 35.7798 26.6584 35.604 26.4916L20.6563 12.2732V11.1902H57.7476V12.2732L42.8024 26.4915ZM51.4254 2.48171C53.1022 2.48171 54.5155 3.58606 54.9243 5.07842H47.9264C48.3348 3.58574 49.7485 2.48171 51.4253 2.48171H51.4254ZM39.2035 2.48171C40.8803 2.48171 42.2936 3.58606 42.7024 5.07842H35.7045C36.1134 3.58574 37.5266 2.48171 39.2034 2.48171H39.2035ZM26.9816 2.48171C28.6584 2.48171 30.0717 3.58606 30.4805 5.07842H23.4835C23.8915 3.58574 25.3053 2.48171 26.9815 2.48171H26.9816ZM57.7491 6.85328V9.41521L20.6578 9.41479V6.85319L57.7491 6.85328Z" fill="#1AA5B9"/>
<path d="M34.1091 52.773V52.6898V52.03V51.9468H34.1923H35.3269C35.3163 51.8159 35.311 51.6825 35.311 51.5469C35.311 51.4112 35.3163 51.2778 35.3269 51.1469H34.1923H34.1091V51.0637V50.4039V50.3207H34.1923H35.4735C35.5211 50.1521 35.5791 49.9881 35.6477 49.8289C35.8719 49.3085 36.1845 48.8555 36.5853 48.4706C36.9862 48.0778 37.4552 47.7773 37.9914 47.5692C38.5361 47.353 39.1238 47.2453 39.754 47.2453C40.4076 47.2453 41.0113 47.3569 41.564 47.5811C42.1179 47.7979 42.5846 48.1237 42.9629 48.5582L43.0142 48.6172L42.9585 48.6721L42.2043 49.4144L42.1448 49.473L42.0865 49.4132C41.7718 49.0909 41.4239 48.8542 41.0428 48.7018L41.0409 48.7011L41.041 48.701C40.6673 48.5409 40.2583 48.4603 39.8129 48.4603C39.359 48.4603 38.9414 48.5372 38.5594 48.69C38.1763 48.8433 37.8397 49.0575 37.5492 49.3327C37.2674 49.6069 37.0501 49.9347 36.8971 50.3169L36.8969 50.3175C36.8965 50.3185 36.896 50.3196 36.8956 50.3207H40.5199H40.6031V50.4039V51.0637V51.1469H40.5199H36.6891C36.6747 51.2768 36.6674 51.4101 36.6674 51.5469C36.6674 51.6832 36.6746 51.8165 36.689 51.9468H40.5199H40.6031V52.03V52.6898V52.773H40.5199H36.891H34.1091ZM34.1091 52.773H34.1923H35.4735C35.5211 52.9416 35.5791 53.1056 35.6477 53.2648C35.8719 53.7852 36.1844 54.242 36.585 54.6346L36.5856 54.6352C36.9864 55.0199 37.455 55.3201 37.9907 55.5361L37.9921 55.5366C38.5366 55.7447 39.1241 55.8484 39.754 55.8484C40.4078 55.8484 41.0116 55.7368 41.5645 55.5124C42.1182 55.2877 42.5847 54.9582 42.9629 54.5237L43.0142 54.4647L42.9585 54.4099L42.2043 53.6675L42.1441 53.6082L42.0858 53.6694C41.771 53.9996 41.423 54.2439 41.0419 54.4041C40.668 54.5566 40.2586 54.6334 39.8129 54.6334C39.359 54.6334 38.9414 54.5565 38.5594 54.4037C38.1763 54.2504 37.8397 54.0362 37.5492 53.761C37.2672 53.4866 37.0499 53.1626 36.897 52.7883L34.1091 52.773Z" fill="#1AA5B9" stroke="#1AA5B9" stroke-width="0.166317"/>
<path d="M37.9405 43.2067C34.7291 43.7169 32.1359 45.8899 31.1095 48.9392C30.5512 50.578 30.5512 52.6429 31.1095 54.2816C32.5261 58.4835 36.9141 60.9086 41.182 59.8521C44.3514 59.0717 46.8365 56.5086 47.4788 53.3632C48.1931 49.8757 46.6984 46.3461 43.6971 44.4252C42.0704 43.3808 39.8254 42.9066 37.9405 43.2067ZM40.6717 44.8274C42.9828 45.3377 44.9756 47.1264 45.732 49.3594C46.0021 50.1458 46.0861 50.704 46.0861 51.6104C46.0861 53.1711 45.6539 54.5037 44.7475 55.7223C43.4089 57.5231 41.392 58.5435 39.1711 58.5435C36.9501 58.5435 34.9332 57.5231 33.5946 55.7223C32.6882 54.5037 32.256 53.1711 32.256 51.6104C32.256 50.3979 32.4781 49.4615 33.0063 48.429C33.9427 46.6162 35.7976 45.1936 37.7004 44.8334C37.9645 44.7854 38.2346 44.7314 38.3007 44.7134C38.5588 44.6473 40.2395 44.7314 40.6717 44.8274Z" fill="#1AA5B9"/>
<path d="M27.0042 27.9675L12.6291 27.9675C12.6291 27.0366 12.2668 26.1437 11.6217 25.4856C10.9769 24.827 10.1023 24.4572 9.19041 24.4572H6.89767C5.98579 24.4572 5.1111 24.827 4.46639 25.4856C3.82124 26.1438 3.45894 27.0367 3.45894 27.9675L1.30138 27.9106C0.668138 27.9106 0.155396 28.4348 0.155396 29.0809C0.155396 29.7269 0.668522 30.2511 1.30177 30.2511L3.45932 30.308C3.45932 31.2389 3.82124 32.1318 4.46639 32.79C5.11115 33.4485 5.98581 33.8184 6.89767 33.8184H9.19041C10.1023 33.8184 10.977 33.4486 11.6217 32.79C12.2668 32.1318 12.6291 31.2389 12.6291 30.308L27.0052 30.308C27.6385 30.308 28.1512 29.7838 28.1512 29.1378C28.1512 28.4917 27.6375 27.9675 27.0042 27.9675ZM10.336 30.308C10.336 30.6183 10.2155 30.9157 10.0006 31.1355C9.78526 31.3549 9.49397 31.4779 9.19001 31.4779H6.89726C6.2644 31.4779 5.75128 30.9541 5.75128 30.308V27.9675C5.75128 27.3215 6.26441 26.7977 6.89726 26.7977H9.19001C9.49397 26.7977 9.78526 26.9207 10.0006 27.1401C10.2155 27.3599 10.336 27.6572 10.336 27.9675V30.308Z" fill="#1AA5B9"/>
<path d="M26.9539 39.047H23.3165C23.3165 38.1104 22.9551 37.2119 22.3107 36.5497C21.6667 35.887 20.7931 35.5148 19.8824 35.5148H17.5924C16.6816 35.5148 15.808 35.887 15.1641 36.5497C14.5197 37.2119 14.1579 38.1104 14.1579 39.047H1.61422C0.981734 39.047 0.469238 39.5745 0.469238 40.2245C0.469238 40.8746 0.981734 41.4021 1.61422 41.4021H14.1589C14.1589 42.3387 14.5203 43.2372 15.1647 43.8994C15.8087 44.5621 16.6823 44.9342 17.593 44.9342H19.883C20.7937 44.9342 21.6674 44.5621 22.3113 43.8994C22.9557 43.2371 23.3175 42.3387 23.3175 41.4021H26.9549C27.5874 41.4021 28.0995 40.8746 28.0995 40.2245C28.0995 39.5745 27.5864 39.047 26.9539 39.047ZM21.027 41.4017C21.027 41.7139 20.9066 42.0135 20.6919 42.2346C20.4769 42.4554 20.186 42.5792 19.8824 42.5792H17.5924C16.9603 42.5792 16.4478 42.0521 16.4478 41.4021V39.047C16.4478 38.3969 16.9603 37.8699 17.5924 37.8699H19.8824C20.186 37.8699 20.4769 37.9937 20.6919 38.2144C20.9066 38.4356 21.027 38.7348 21.027 39.047V41.4017Z" fill="#1AA5B9"/>
<path d="M27.0295 50.1666L14.0966 50.1411C14.0966 49.2102 13.7343 48.3173 13.0892 47.6591C12.4444 47.0006 11.5697 46.6307 10.6579 46.6307H8.36515C7.45328 46.6307 6.57859 47.0006 5.93387 47.6591C5.28873 48.3173 4.92642 49.2102 4.92642 50.1411L1.69194 50.1666C1.05869 50.1666 0.545568 50.6908 0.545568 51.3368C0.545568 51.9829 1.05869 52.5071 1.69194 52.5071L4.92642 52.4816C4.92642 53.4125 5.28872 54.3054 5.93387 54.9635C6.57863 55.6221 7.4533 55.9919 8.36515 55.9919H10.6579C11.5698 55.9919 12.4445 55.6221 13.0892 54.9635C13.7343 54.3053 14.0966 53.4124 14.0966 52.4816L27.0295 52.5071C27.6627 52.5071 28.1758 51.9829 28.1758 51.3368C28.1758 50.6908 27.6627 50.1666 27.0295 50.1666ZM11.8035 52.4812C11.8035 52.7915 11.683 53.0892 11.468 53.309C11.2527 53.5284 10.9615 53.6514 10.6575 53.6514H8.36475C7.73188 53.6514 7.21876 53.1276 7.21876 52.4816V50.1411C7.21876 49.495 7.73189 48.9712 8.36475 48.9712H10.6575C10.9615 48.9712 11.2527 49.0942 11.468 49.3136C11.683 49.5334 11.8035 49.8308 11.8035 50.1411V52.4812Z" fill="#1AA5B9"/>
</svg>
