<svg width="69" height="69" viewBox="0 0 69 69" fill="none" xmlns="http://www.w3.org/2000/svg">
<g clip-path="url(#clip0_21_2385)">
<path d="M3.90631 1.79801C2.65243 2.09001 1.51 2.99256 0.910923 4.13401L0.562622 4.79765V12.2968V19.7959L0.883059 20.3931C1.37068 21.3488 1.92796 21.9062 2.88927 22.3973L3.76699 22.8486L8.01625 22.8884L12.2655 22.9282L14.5086 25.0519C16.473 26.8968 16.7934 27.1622 17.1975 27.1622C17.49 27.1622 17.7687 27.0428 17.9776 26.8304C18.312 26.5251 18.326 26.4455 18.326 24.72V22.9282L22.2687 22.8884L26.1975 22.8486L27.0753 22.3973C28.0505 21.893 28.4685 21.4815 29.0257 20.4728L29.4019 19.7959V12.2968V4.79765L28.9282 3.96147C28.4127 3.04565 27.8276 2.51474 26.8245 2.05019L26.1975 1.74492L15.2609 1.71837C9.24227 1.7051 4.14315 1.74492 3.90631 1.79801ZM26.2115 4.14729C26.4205 4.29329 26.727 4.58529 26.8802 4.78438C27.1728 5.14274 27.1728 5.28874 27.1728 12.2968C27.1728 19.3048 27.1728 19.4508 26.8802 19.8091C26.727 20.0082 26.4205 20.3002 26.2115 20.4462C25.8492 20.7117 25.5985 20.7249 21.2238 20.7913L16.6262 20.8577L16.3615 21.1762C16.1526 21.4151 16.0968 21.6939 16.0968 22.4902V23.5122L14.7036 22.185L13.3104 20.8577L8.72679 20.7913C4.36606 20.7249 4.11529 20.7117 3.75306 20.4462C3.54407 20.3002 3.23757 20.0082 3.08432 19.8091C2.80568 19.4508 2.79175 19.2782 2.74995 12.6551C2.72209 8.9122 2.74995 5.67365 2.79175 5.43474C2.88927 4.90383 3.47441 4.22692 4.04563 3.98801C4.38 3.84201 6.48373 3.81547 15.1494 3.84201C25.696 3.86856 25.8353 3.86856 26.2115 4.14729Z" fill="#1AA5B9"/>
<path d="M43.7723 1.79801C42.5184 2.09001 41.376 2.99256 40.7769 4.13401L40.4286 4.79765V12.2968V19.7959L40.749 20.3931C41.2366 21.3488 41.7939 21.9062 42.7552 22.3973L43.633 22.8486L47.5757 22.8884L51.5045 22.9282V24.72C51.5045 26.4455 51.5185 26.5251 51.8528 26.8304C52.0618 27.0428 52.3405 27.1622 52.633 27.1622C53.0371 27.1622 53.3575 26.8968 55.3219 25.0519L57.565 22.9282L61.8142 22.8884L66.0635 22.8486L66.9412 22.3973C67.9165 21.893 68.3344 21.4815 68.8917 20.4728L69.2679 19.7959V12.2968V4.79765L68.7942 3.96147C68.2787 3.04565 67.6936 2.51474 66.6905 2.05019L66.0635 1.74492L55.1269 1.71837C49.1082 1.7051 44.0091 1.74492 43.7723 1.79801ZM66.0774 4.14729C66.2864 4.29329 66.5929 4.58529 66.7462 4.78438C67.0388 5.14274 67.0388 5.28874 67.0388 12.2968C67.0388 19.3048 67.0388 19.4508 66.7462 19.8091C66.5929 20.0082 66.2864 20.3002 66.0774 20.4462C65.7152 20.7117 65.4644 20.7249 61.1037 20.7913L56.5201 20.8577L55.1269 22.185L53.7337 23.5122V22.4902C53.7337 21.6939 53.6779 21.4151 53.469 21.1762L53.2043 20.8577L48.6067 20.7913C44.232 20.7249 43.9813 20.7117 43.619 20.4462C43.41 20.3002 43.1035 20.0082 42.9503 19.8091C42.6716 19.4508 42.6577 19.2782 42.6159 12.6551C42.5881 8.9122 42.6159 5.67365 42.6577 5.43474C42.7552 4.90383 43.3404 4.22692 43.9116 3.98801C44.246 3.84201 46.3497 3.81547 55.0154 3.84201C65.562 3.86856 65.7013 3.86856 66.0774 4.14729Z" fill="#1AA5B9"/>
<path d="M45.5179 11.9887V18.0322L45.8493 18.3503L46.1674 18.6816H55.3917H64.6028V17.6214V16.5611H63.5425H62.4822V14.4406V12.32H61.422H60.3617V14.4406V16.5611H59.3014H58.2412V14.9707V13.3803H57.1809H56.1206V14.9707V16.5611H55.0604H54.0001V15.5008V14.4406H52.9398H51.8796V15.5008V16.5611H49.759H47.6385V11.2598V5.95843H46.5782H45.5179V11.9887Z" fill="#1AA5B9"/>
<path d="M57.1808 7.01875V8.07901H58.0025H58.8243L58.3074 8.60915L57.7905 9.13928H55.67H53.5494L51.2964 11.3924L49.03 13.6454L49.7855 14.4009L50.5542 15.1696L52.5157 13.2081L54.4639 11.2598H56.5579H58.6652L59.5134 10.4381L60.3616 9.62966V10.4381V11.2598H61.4219H62.4822V8.94048C62.4822 5.78618 62.6545 5.95848 59.5002 5.95848H57.1808V7.01875Z" fill="#1AA5B9"/>
<path d="M29.6405 23.2416C27.3742 23.732 25.1211 25.508 24.1271 27.5755C22.9608 30.0141 22.9741 32.0816 24.1801 35.1034C24.4849 35.8721 24.7633 36.5745 24.803 36.654C24.856 36.7733 24.7235 36.8263 24.3789 36.8263C22.6692 36.8263 21.1318 38.3372 21.1318 40.0071C21.1318 40.8421 21.4367 41.518 22.1258 42.1939C22.8945 42.9626 23.4777 43.1879 24.7235 43.1879H25.5717L25.9428 44.2615C26.5392 45.9314 27.9706 47.8399 29.3224 48.7809C29.614 48.9797 29.6272 49.0459 29.5875 50.4773L29.5477 51.9749L25.8633 53.2075C23.8355 53.8834 21.768 54.6653 21.2644 54.9304C19.4884 55.8581 17.9378 57.7666 17.2751 59.8209C17.01 60.6426 16.9703 61.0932 16.9173 63.8234L16.8643 66.8982L17.2088 67.2428L17.5402 67.5741H34.9153H52.2905L52.6218 67.2428L52.9664 66.8982L52.9134 63.8234C52.8604 60.9607 52.8338 60.6824 52.5158 59.7281C51.7868 57.5148 50.329 55.8184 48.2879 54.7846C47.9036 54.5726 45.9289 53.8701 43.9276 53.1942L40.2829 51.9749L40.2432 50.5303L40.2167 49.0857L40.6938 48.7676C40.9456 48.5821 41.542 48.0254 42.0191 47.5218C42.9468 46.5278 43.9674 44.6856 44.1264 43.7313L44.2192 43.1879H45.0806C45.5578 43.1879 46.1939 43.1217 46.4987 43.0289C47.2277 42.8168 48.3277 41.7168 48.5398 40.9879C48.9109 39.7421 48.6458 38.7481 47.7048 37.8203C47.0024 37.1179 46.353 36.8263 45.4517 36.8263C45.1071 36.8263 44.9746 36.7733 45.0276 36.654C45.0674 36.5745 45.3457 35.8721 45.6505 35.1034C46.8566 32.0816 46.8698 30.0141 45.7035 27.5755C45.0144 26.1441 43.477 24.6067 42.0456 23.9176C40.3757 23.1224 39.7793 23.0429 34.8491 23.0561C31.6815 23.0561 30.2501 23.1091 29.6405 23.2416ZM40.5082 25.5345C42.7215 26.4225 44.2192 28.4237 44.418 30.7298C44.5107 31.8298 44.3252 32.6913 43.6493 34.4142L43.0926 35.7793L42.6818 35.6865C41.2239 35.3817 40.3227 34.613 39.4347 32.8768C38.9973 32.0419 38.7853 31.7768 38.4805 31.6708C37.725 31.4057 37.3274 31.737 36.5985 33.1817C36.0286 34.3214 35.2201 35.1034 34.1996 35.4877C33.5105 35.7396 33.1924 35.7661 30.0911 35.7661H26.7247L26.1814 34.401C25.8898 33.6588 25.585 32.7841 25.5187 32.4527C24.8295 29.3912 26.791 26.2237 29.8923 25.3754C30.4754 25.2164 31.4827 25.1766 35.1804 25.2031C39.607 25.2297 39.7793 25.2429 40.5082 25.5345ZM38.666 35.6468C39.2757 36.4552 40.5347 37.2902 41.5685 37.595L42.3372 37.8203V39.9409C42.3372 42.8964 42.0324 44.0362 40.8263 45.6796C40.0974 46.6603 38.7853 47.6146 37.5262 48.0652C36.2141 48.5423 34.1201 48.5688 32.7285 48.1314C30.5285 47.4423 28.673 45.6266 27.8778 43.4132C27.6392 42.7241 27.5862 42.2337 27.5332 40.2324L27.4669 37.8866H30.502C33.8153 37.8866 34.5442 37.7806 35.7503 37.1179C36.5455 36.6938 37.566 35.8058 37.8178 35.3154C37.9238 35.1299 38.0431 34.9709 38.0829 34.9841C38.1226 34.9841 38.3877 35.2889 38.666 35.6468ZM25.3729 40.0071V41.0674H24.644C23.756 41.0674 23.2524 40.6831 23.2524 40.0071C23.2524 39.3312 23.756 38.9469 24.644 38.9469H25.3729V40.0071ZM46.2469 39.2782C46.459 39.477 46.5783 39.7553 46.5783 40.0071C46.5783 40.6831 46.0746 41.0674 45.1867 41.0674H44.4577V40.0071V38.9469H45.1867C45.7963 38.9469 45.9819 38.9999 46.2469 39.2782ZM33.1394 50.411C34.3057 50.6628 35.79 50.6628 36.9696 50.411C37.4732 50.305 37.9371 50.2122 37.9901 50.2122C38.0564 50.2122 38.0961 50.6761 38.0961 51.246V52.2665L36.5057 53.8569L34.9153 55.4473L33.3249 53.8569L31.7345 52.2665V51.1665C31.7345 50.1459 31.7478 50.0664 31.9863 50.1459C32.1189 50.1857 32.6357 50.305 33.1394 50.411ZM33.0598 56.6666C33.0598 56.6931 32.649 56.9052 32.1454 57.1702L31.2309 57.6208L30.555 55.9377C30.1839 55.0099 29.879 54.2147 29.879 54.1617C29.879 54.1219 29.9851 54.0557 30.1176 54.0159C30.2634 53.9894 30.7935 54.4003 31.708 55.3015C32.4502 56.0304 33.0598 56.6533 33.0598 56.6666ZM39.9516 54.175C39.9516 54.2147 39.6468 55.0099 39.2757 55.9377L38.5997 57.6208L37.672 57.157L36.731 56.6798L38.0961 55.3148C39.0901 54.3207 39.5142 53.9762 39.6998 54.0159C39.8323 54.0557 39.9516 54.1219 39.9516 54.175ZM28.8188 57.316C29.4152 58.8136 29.9056 59.8474 30.0646 59.9667C30.4357 60.2185 30.8598 60.2052 31.4694 59.8872C31.761 59.7414 32.0393 59.6221 32.1056 59.6221C32.1719 59.6221 32.3309 59.9799 32.4634 60.4173L32.702 61.2125L31.867 63.333L31.0321 65.4536H28.1959H25.3729V63.8632V62.2728H24.3126H23.2524V63.8632V65.4536H21.1318H19.0113V63.6113C19.0113 61.4378 19.1438 60.6293 19.674 59.5426C20.615 57.6341 21.662 56.8786 25.0681 55.7256C26.4332 55.2485 27.626 54.8641 27.7055 54.8641C27.785 54.8509 28.2886 55.9642 28.8188 57.316ZM44.7095 55.7124C48.0361 56.8389 48.8976 57.3955 49.9446 59.1317C50.594 60.2317 50.8193 61.3583 50.8193 63.5848V65.4536H48.6988H46.5783V63.8632V62.2728H45.518H44.4577V63.8632V65.4536H41.6348H38.7985L37.9636 63.333L37.1286 61.2125L37.3672 60.4173C37.4997 59.9799 37.6588 59.6221 37.725 59.6221C37.7913 59.6221 38.0696 59.7414 38.3612 59.8872C38.9708 60.2052 39.3949 60.2185 39.766 59.9667C39.9251 59.8474 40.4155 58.8136 41.0119 57.316C41.542 55.9642 42.0191 54.8509 42.0721 54.8509C42.1251 54.8509 43.3047 55.2352 44.7095 55.7124ZM35.3262 58.3763C35.7503 58.5883 35.7503 58.5486 35.3792 59.6221C35.2599 59.9667 35.1406 60.086 34.9153 60.086C34.69 60.086 34.5707 59.9667 34.4515 59.6221C34.0804 58.5618 34.0804 58.5883 34.478 58.3763C34.9418 58.1245 34.8623 58.1245 35.3262 58.3763ZM35.8298 63.6909C36.1479 64.4861 36.4262 65.2017 36.466 65.2813C36.519 65.4138 36.1611 65.4536 34.9153 65.4536C33.6695 65.4536 33.3117 65.4138 33.3647 65.2813C33.4044 65.2017 33.6828 64.4861 34.0008 63.6909C34.5177 62.3788 34.584 62.2728 34.9153 62.2728C35.2467 62.2728 35.3129 62.3788 35.8298 63.6909Z" fill="#1AA5B9"/>
<path d="M8.95504 14.1165V14.2062H9.0448H10.8099C10.8755 14.4413 10.9559 14.6696 11.0513 14.8911C11.3559 15.598 11.7803 16.2184 12.3243 16.7516L12.325 16.7522C12.8692 17.2747 13.5057 17.6826 14.2337 17.9759L14.2352 17.9765C14.9747 18.2593 15.773 18.4002 16.6294 18.4002C17.5182 18.4002 18.3386 18.2484 19.0895 17.9437C19.8412 17.6387 20.4744 17.1914 20.9875 16.6018L21.0429 16.5381L20.9828 16.4789L19.9544 15.4666L19.8894 15.4026L19.8264 15.4686C19.395 15.921 18.9178 16.2563 18.3947 16.476C17.8817 16.6853 17.3204 16.7906 16.7097 16.7906C16.088 16.7906 15.5156 16.6852 14.9915 16.4756C14.4663 16.2655 14.0048 15.9718 13.6063 15.5943C13.2193 15.2177 12.921 14.7731 12.7114 14.2596C12.7043 14.2418 12.6973 14.2241 12.6905 14.2062H17.6739H17.7636V14.1165V13.2166V13.1268H17.6739H12.4284C12.4072 12.9415 12.3966 12.7519 12.3966 12.5578C12.3966 12.3631 12.4073 12.1734 12.4286 11.9887H17.6739H17.7636V11.8989V10.9991V10.9093H17.6739H12.6964C12.7013 10.8969 12.7063 10.8846 12.7113 10.8723L12.7115 10.8717C12.9212 10.3474 13.2195 9.89761 13.6063 9.52118C14.0048 9.14375 14.4663 8.85 14.9915 8.63992C15.5156 8.43029 16.088 8.32496 16.7097 8.32496C17.32 8.32496 17.8809 8.43538 18.3937 8.65515L18.3937 8.65517L18.3958 8.65598C18.9188 8.86518 19.3959 9.18984 19.8272 9.63162L19.8901 9.69612L19.9544 9.63289L20.9828 8.62054L21.0429 8.56132L20.9875 8.49765C20.4743 7.90799 19.841 7.46593 19.089 7.17161C18.3382 6.86702 17.518 6.71529 16.6294 6.71529C15.7728 6.71529 14.9741 6.8617 14.2344 7.15536C13.5059 7.43811 12.8691 7.84624 12.3247 8.37966C11.7804 8.90228 11.3559 9.51744 11.0513 10.2244C10.9559 10.4459 10.8755 10.6742 10.8099 10.9093H9.0448H8.95504V10.9991V11.8989V11.9887H9.0448H10.6179C10.602 12.1748 10.5941 12.3645 10.5941 12.5578C10.5941 12.751 10.602 12.9407 10.6179 13.1268H9.0448H8.95504V13.2166V14.1165Z" fill="#1AA5B9" stroke="#1AA5B9" stroke-width="0.17952"/>
</g>
<defs>
<clipPath id="clip0_21_2385">
<rect width="67.8571" height="67.8571" fill="white" transform="translate(0.986694 0.777466)"/>
</clipPath>
</defs>
</svg>
