<svg width="528" height="87" viewBox="0 0 528 87" fill="none" xmlns="http://www.w3.org/2000/svg">
<g clip-path="url(#clip0_21_2023)">
<path d="M87.6501 66.4023H98.3086V44.6368H125.656V36.0901H98.3086V20.4419H125.656V11.8951H87.6501V66.4023Z" fill="#07213A"/>
<path d="M171.092 26.4221C160.571 26.4346 152.043 34.9564 152.03 45.4778V66.4024H161.655V45.4778C161.655 40.2638 165.891 36.0465 171.098 36.0465C176.306 36.0465 180.524 40.2701 180.53 45.4778V66.4024H190.154V45.4778C190.142 34.9564 181.614 26.4283 171.092 26.4221Z" fill="#07213A"/>
<path d="M318.579 28.7024V51.1282C318.579 56.5291 314.841 60.2979 309.453 60.2979C304.065 60.2979 300.246 56.5602 300.246 51.1282V28.7024H290.541V51.1282C290.435 55.5573 292.353 59.7871 295.742 62.6339C299.199 65.6988 303.84 67.2499 309.54 67.2499C315.24 67.2499 319.75 65.7361 323.245 62.6152C326.671 59.6562 328.341 55.8999 328.341 51.1282V28.7024H318.579Z" fill="#07213A"/>
<path d="M217.015 57.108L203.996 28.6023L203.959 28.5276H192.123L211.197 68.6636L210.294 70.8688C209.908 72.1769 209.035 73.292 207.858 73.9835C206.457 74.731 204.887 75.0923 203.298 75.0238H198.62V83.122H203.728C208.78 83.122 212.823 82.0069 215.751 79.8017C217.62 78.4001 219.308 76.0952 220.853 72.75L240.562 28.7145L240.643 28.5276H228.839L217.015 57.108Z" fill="#07213A"/>
<path d="M277.976 33.4491C273.94 29.7115 268.9 27.8427 262.565 27.8427C256.229 27.8427 251.19 29.6679 247.159 33.4491C243.197 37.031 240.999 42.1702 241.142 47.5088C241.142 53.2523 243.11 57.8808 247.159 61.6558C251.208 65.4308 256.229 67.2622 262.565 67.2622C268.9 67.2622 273.94 65.437 277.976 61.6558C282.013 57.8745 283.907 53.3084 283.907 47.5088C283.907 41.7093 281.975 37.1743 277.976 33.4491ZM270.763 56.0929C268.694 58.4414 265.692 59.7434 262.565 59.6562C255.974 59.6562 251.19 54.5605 251.19 47.54C251.078 44.3568 252.243 41.2545 254.423 38.931C258.846 34.4333 266.078 34.3711 270.582 38.7939C270.638 38.85 270.694 38.906 270.744 38.9621C274.893 43.9269 274.893 51.1593 270.744 56.1241L270.763 56.0929Z" fill="#07213A"/>
<path d="M143.677 28.7024H133.972V66.4027H143.677V28.7024Z" fill="#07213A"/>
<path d="M138.824 21.4453C142.261 21.4453 145.048 18.6591 145.048 15.2222C145.048 11.7852 142.261 8.99902 138.824 8.99902C135.387 8.99902 132.601 11.7852 132.601 15.2222C132.601 18.6591 135.387 21.4453 138.824 21.4453Z" fill="#07213A"/>
<path d="M23.1507 77.1103C23.1507 78.1381 22.3097 78.9791 21.2819 78.9791H2.8242C1.79012 78.9791 0.955383 78.1444 0.955383 77.1103V20.5536C0.955383 20.5038 0.99276 20.4664 1.04259 20.4664H23.132C23.132 20.4664 23.1507 20.4727 23.1507 20.4851V77.1103Z" fill="#1AA5B9"/>
<path d="M23.1507 77.1103C23.1507 78.1381 22.3097 78.9791 21.2819 78.9791H2.8242C1.79012 78.9791 0.955383 78.1444 0.955383 77.1103V20.5536C0.955383 20.5038 0.99276 20.4664 1.04259 20.4664H23.132C23.132 20.4664 23.1507 20.4727 23.1507 20.4851V77.1103Z" fill="#1AA5B9"/>
<path d="M44.0813 52.2422C50.305 52.2422 55.3503 47.1969 55.3503 40.9732C55.3503 34.7495 50.305 29.7042 44.0813 29.7042C37.8576 29.7042 32.8123 34.7495 32.8123 40.9732C32.8123 47.1969 37.8576 52.2422 44.0813 52.2422Z" fill="#1AA5B9"/>
<path d="M62.3338 18.5983C62.3338 19.6261 61.4928 20.4671 60.4649 20.4671H23.1696C23.1696 20.4671 23.1509 20.4609 23.1509 20.4484V0.0471496C23.1509 0.0471496 23.1758 -0.00268555 23.2007 -0.00268555H60.4649C61.4928 -0.00268555 62.3338 0.838282 62.3338 1.86613V18.5983Z" fill="#1AA5B9"/>
<path d="M23.1694 -0.00292969V20.4669H0.955383" fill="#16748D"/>
</g>
<path d="M355.846 64.9976V30.3776C355.846 27.2576 356.746 24.7776 358.546 22.9376C360.386 21.0576 362.986 20.1176 366.346 20.1176C367.586 20.1176 368.766 20.2776 369.886 20.5976C371.046 20.8776 372.026 21.3376 372.826 21.9776L371.086 26.3576C370.486 25.8776 369.806 25.5176 369.046 25.2776C368.286 24.9976 367.486 24.8576 366.646 24.8576C364.966 24.8576 363.686 25.3376 362.806 26.2976C361.926 27.2176 361.486 28.5976 361.486 30.4376V34.6976L361.606 37.3376V64.9976H355.846ZM350.446 37.9376V33.1976H370.726V37.9376H350.446ZM376.186 64.9976V33.1976H381.946V64.9976H376.186ZM379.066 27.0776C377.946 27.0776 377.006 26.7176 376.246 25.9976C375.526 25.2776 375.166 24.3976 375.166 23.3576C375.166 22.2776 375.526 21.3776 376.246 20.6576C377.006 19.9376 377.946 19.5776 379.066 19.5776C380.186 19.5776 381.106 19.9376 381.826 20.6576C382.586 21.3376 382.966 22.1976 382.966 23.2376C382.966 24.3176 382.606 25.2376 381.886 25.9976C381.166 26.7176 380.226 27.0776 379.066 27.0776ZM408.997 32.8976C411.597 32.8976 413.877 33.3976 415.837 34.3976C417.837 35.3976 419.397 36.9176 420.517 38.9576C421.637 40.9976 422.197 43.5776 422.197 46.6976V64.9976H416.437V47.3576C416.437 44.2776 415.677 41.9576 414.157 40.3976C412.677 38.8376 410.577 38.0576 407.857 38.0576C405.817 38.0576 404.037 38.4576 402.517 39.2576C400.997 40.0576 399.817 41.2376 398.977 42.7976C398.177 44.3576 397.777 46.2976 397.777 48.6176V64.9976H392.017V33.1976H397.537V41.7776L396.637 39.4976C397.677 37.4176 399.277 35.7976 401.437 34.6376C403.597 33.4776 406.117 32.8976 408.997 32.8976ZM445.096 65.3576C442.016 65.3576 439.256 64.6776 436.816 63.3176C434.416 61.9576 432.516 60.0576 431.116 57.6176C429.716 55.1776 429.016 52.3376 429.016 49.0976C429.016 45.8576 429.716 43.0376 431.116 40.6376C432.516 38.1976 434.416 36.2976 436.816 34.9376C439.256 33.5776 442.016 32.8976 445.096 32.8976C447.776 32.8976 450.196 33.4976 452.356 34.6976C454.516 35.8976 456.236 37.6976 457.516 40.0976C458.836 42.4976 459.496 45.4976 459.496 49.0976C459.496 52.6976 458.856 55.6976 457.576 58.0976C456.336 60.4976 454.636 62.3176 452.476 63.5576C450.316 64.7576 447.856 65.3576 445.096 65.3576ZM445.576 60.3176C447.576 60.3176 449.376 59.8576 450.976 58.9376C452.616 58.0176 453.896 56.7176 454.816 55.0376C455.776 53.3176 456.256 51.3376 456.256 49.0976C456.256 46.8176 455.776 44.8576 454.816 43.2176C453.896 41.5376 452.616 40.2376 450.976 39.3176C449.376 38.3976 447.576 37.9376 445.576 37.9376C443.536 37.9376 441.716 38.3976 440.116 39.3176C438.516 40.2376 437.236 41.5376 436.276 43.2176C435.316 44.8576 434.836 46.8176 434.836 49.0976C434.836 51.3376 435.316 53.3176 436.276 55.0376C437.236 56.7176 438.516 58.0176 440.116 58.9376C441.716 59.8576 443.536 60.3176 445.576 60.3176ZM456.436 64.9976V56.4176L456.796 49.0376L456.196 41.6576V20.4776H461.956V64.9976H456.436ZM486.115 65.3576C482.715 65.3576 479.715 64.6576 477.115 63.2576C474.555 61.8576 472.555 59.9376 471.115 57.4976C469.715 55.0576 469.015 52.2576 469.015 49.0976C469.015 45.9376 469.695 43.1376 471.055 40.6976C472.455 38.2576 474.355 36.3576 476.755 34.9976C479.195 33.5976 481.935 32.8976 484.975 32.8976C488.055 32.8976 490.775 33.5776 493.135 34.9376C495.495 36.2976 497.335 38.2176 498.655 40.6976C500.015 43.1376 500.695 45.9976 500.695 49.2776C500.695 49.5176 500.675 49.7976 500.635 50.1176C500.635 50.4376 500.615 50.7376 500.575 51.0176H473.515V46.8776H497.575L495.235 48.3176C495.275 46.2776 494.855 44.4576 493.975 42.8576C493.095 41.2576 491.875 40.0176 490.315 39.1376C488.795 38.2176 487.015 37.7576 484.975 37.7576C482.975 37.7576 481.195 38.2176 479.635 39.1376C478.075 40.0176 476.855 41.2776 475.975 42.9176C475.095 44.5176 474.655 46.3576 474.655 48.4376V49.3976C474.655 51.5176 475.135 53.4176 476.095 55.0976C477.095 56.7376 478.475 58.0176 480.235 58.9376C481.995 59.8576 484.015 60.3176 486.295 60.3176C488.175 60.3176 489.875 59.9976 491.395 59.3576C492.955 58.7176 494.315 57.7576 495.475 56.4776L498.655 60.1976C497.215 61.8776 495.415 63.1576 493.255 64.0376C491.135 64.9176 488.755 65.3576 486.115 65.3576ZM518.713 65.3576C515.513 65.3576 513.033 64.4976 511.273 62.7776C509.513 61.0576 508.633 58.5976 508.633 55.3976V26.2376H514.393V55.1576C514.393 56.8776 514.813 58.1976 515.653 59.1176C516.533 60.0376 517.773 60.4976 519.373 60.4976C521.173 60.4976 522.673 59.9976 523.873 58.9976L525.673 63.1376C524.793 63.8976 523.733 64.4576 522.493 64.8176C521.293 65.1776 520.033 65.3576 518.713 65.3576ZM503.233 37.9376V33.1976H523.513V37.9376H503.233Z" fill="#07213A"/>
<defs>
<clipPath id="clip0_21_2023">
<rect width="327.386" height="83.125" fill="white" transform="translate(0.955383 -0.00244141)"/>
</clipPath>
</defs>
</svg>
