
<svg id="Layer_1" data-name="Layer 1" xmlns="http://www.w3.org/2000/svg" viewBox="0 0 525.55 133.44">
  <defs>
    <style>
      .cls-1 {
        fill: #fff;
      }

      .cls-2 {
        fill: #f5f5f5;
      }
    </style>
  </defs>
  <polygon class="cls-1" points="139.17 106.6 156.28 106.6 156.28 71.66 200.18 71.66 200.18 57.94 156.28 57.94 156.28 32.82 200.18 32.82 200.18 19.1 139.17 19.1 139.17 106.6"/>
  <path class="cls-1" d="m273.12,42.42c-16.89.02-30.58,13.7-30.6,30.59v33.59h15.45v-33.59c0-8.37,6.8-15.14,15.16-15.14,8.36,0,15.13,6.78,15.14,15.14v33.59h15.45v-33.59c-.02-16.89-13.71-30.58-30.6-30.59Z"/>
  <path class="cls-1" d="m509.88,46.08v36c0,8.67-6,14.72-14.65,14.72s-14.78-6-14.78-14.72v-36h-15.58v36c-.17,7.11,2.91,13.9,8.35,18.47,5.55,4.92,13,7.41,22.15,7.41s16.39-2.43,22-7.44c5.5-4.75,8.18-10.78,8.18-18.44v-36h-15.67Z"/>
  <path class="cls-1" d="m346.84,91.68l-20.9-45.76-.06-.12h-19l30.62,64.43-1.45,3.54c-.62,2.1-2.02,3.89-3.91,5-2.25,1.2-4.77,1.78-7.32,1.67h-7.51v13h8.2c8.11,0,14.6-1.79,19.3-5.33,3-2.25,5.71-5.95,8.19-11.32l31.64-70.69.13-.3h-18.95l-18.98,45.88Z"/>
  <path class="cls-1" d="m444.7,53.7c-6.48-6-14.57-9-24.74-9s-18.26,2.93-24.73,9c-6.36,5.75-9.89,14-9.66,22.57,0,9.22,3.16,16.65,9.66,22.71s14.56,9,24.73,9,18.26-2.93,24.74-9,9.52-13.4,9.52-22.71-3.1-16.59-9.52-22.57Zm-11.58,36.35c-3.32,3.77-8.14,5.86-13.16,5.72-10.58,0-18.26-8.18-18.26-19.45-.18-5.11,1.69-10.09,5.19-13.82,7.1-7.22,18.71-7.32,25.94-.22.09.09.18.18.26.27,6.66,7.97,6.66,19.58,0,27.55l.03-.05Z"/>
  <rect class="cls-1" x="213.53" y="46.08" width="15.58" height="60.52"/>
  <circle class="cls-1" cx="221.32" cy="24.44" r="9.99"/>
  <g id="Layer_1-2" data-name="Layer 1">
    <g id="Ebene_1-2" data-name="Ebene 1-2">
      <g>
        <g id="Ebene_1-2-2" data-name="Ebene 1-2">
          <g>
            <path class="cls-1" d="m35.63,123.79c0,1.65-1.35,3-3,3H3c-1.66,0-3-1.34-3-3V33c0-.08.06-.14.14-.14h35.46s.03.01.03.03v90.9Z"/>
            <path class="cls-1" d="m35.63,123.79c0,1.65-1.35,3-3,3H3c-1.66,0-3-1.34-3-3V33c0-.08.06-.14.14-.14h35.46s.03.01.03.03v90.9Z"/>
          </g>
          <circle class="cls-1" cx="69.23" cy="65.78" r="18.09"/>
        </g>
        <path class="cls-1" d="m98.53,29.86c0,1.65-1.35,3-3,3h-59.87s-.03-.01-.03-.03V.08s.04-.08.08-.08h59.82c1.65,0,3,1.35,3,3v26.86Z"/>
      </g>
      <polyline class="cls-2" points="35.66 0 35.66 32.86 0 32.86"/>
    </g>
  </g>
</svg>