<svg width="158" height="41" viewBox="0 0 158 41" fill="none" xmlns="http://www.w3.org/2000/svg">
<g clipPath="url(#clip0_425_1409)">
<path d="M42.3765 32.3714H47.4898V21.9296H60.6092V17.8294H47.4898V10.3224H60.6092V6.22217H42.3765V32.3714Z" fill="#07213A"/>
<path d="M82.407 13.1912C77.3594 13.1971 73.2682 17.2854 73.2622 22.3329V32.3712H77.8794V22.3329C77.8794 19.8316 79.9116 17.8084 82.4099 17.8084C84.9083 17.8084 86.9315 19.8346 86.9345 22.3329V32.3712H91.5517V22.3329C91.5457 17.2854 87.4545 13.1942 82.407 13.1912Z" fill="#07213A"/>
<path d="M153.162 14.2852V25.0437C153.162 27.6347 151.369 29.4427 148.784 29.4427C146.199 29.4427 144.367 27.6496 144.367 25.0437V14.2852H139.711V25.0437C139.66 27.1685 140.581 29.1977 142.206 30.5634C143.865 32.0337 146.091 32.7779 148.826 32.7779C151.56 32.7779 153.724 32.0517 155.401 30.5544C157.044 29.1349 157.845 27.3329 157.845 25.0437V14.2852H153.162Z" fill="#07213A"/>
<path d="M104.438 27.9126L98.1921 14.2373L98.1742 14.2014H92.4961L101.647 33.4562L101.213 34.5141C101.028 35.1417 100.61 35.6766 100.045 36.0084C99.3726 36.367 98.6195 36.5403 97.8574 36.5074H95.6131V40.3925H98.0636C100.487 40.3925 102.427 39.8575 103.831 38.7996C104.728 38.1272 105.538 37.0215 106.279 35.4166L115.735 14.2911L115.773 14.2014H110.11L104.438 27.9126Z" fill="#07213A"/>
<path d="M133.683 16.5624C131.747 14.7693 129.329 13.8728 126.29 13.8728C123.251 13.8728 120.833 14.7484 118.899 16.5624C116.999 18.2808 115.944 20.7463 116.012 23.3074C116.012 26.0628 116.957 28.2833 118.899 30.0943C120.842 31.9053 123.251 32.7839 126.29 32.7839C129.329 32.7839 131.747 31.9083 133.683 30.0943C135.62 28.2803 136.528 26.0897 136.528 23.3074C136.528 20.5252 135.602 18.3495 133.683 16.5624ZM130.223 27.4256C129.23 28.5522 127.79 29.1768 126.29 29.135C123.128 29.135 120.833 26.6904 120.833 23.3224C120.779 21.7953 121.338 20.307 122.384 19.1923C124.506 17.0346 127.975 17.0047 130.136 19.1265C130.163 19.1534 130.19 19.1803 130.214 19.2072C132.204 21.5891 132.204 25.0587 130.214 27.4405L130.223 27.4256Z" fill="#07213A"/>
<path d="M69.2549 14.2852H64.5989V32.3714H69.2549V14.2852Z" fill="#07213A"/>
<path d="M66.9269 10.8037C68.5757 10.8037 69.9124 9.4671 69.9124 7.81826C69.9124 6.16941 68.5757 4.83276 66.9269 4.83276C65.2781 4.83276 63.9414 6.16941 63.9414 7.81826C63.9414 9.4671 65.2781 10.8037 66.9269 10.8037Z" fill="#07213A"/>
<path d="M11.4336 37.5085C11.4336 38.0016 11.0302 38.405 10.5371 38.405H1.68219C1.1861 38.405 0.785645 38.0046 0.785645 37.5085V10.3761C0.785645 10.3522 0.803575 10.3342 0.827483 10.3342H11.4246C11.4246 10.3342 11.4336 10.3372 11.4336 10.3432V37.5085Z" fill="#1AA5B9"/>
<path d="M11.4336 37.5085C11.4336 38.0016 11.0302 38.405 10.5371 38.405H1.68219C1.1861 38.405 0.785645 38.0046 0.785645 37.5085V10.3761C0.785645 10.3522 0.803575 10.3342 0.827483 10.3342H11.4246C11.4246 10.3342 11.4336 10.3372 11.4336 10.3432V37.5085Z" fill="#1AA5B9"/>
<path d="M21.4748 25.5782C24.4605 25.5782 26.8809 23.1578 26.8809 20.172C26.8809 17.1863 24.4605 14.7659 21.4748 14.7659C18.489 14.7659 16.0686 17.1863 16.0686 20.172C16.0686 23.1578 18.489 25.5782 21.4748 25.5782Z" fill="#1AA5B9"/>
<path d="M30.2314 9.43776C30.2314 9.93086 29.8279 10.3343 29.3348 10.3343H11.4428C11.4428 10.3343 11.4338 10.3313 11.4338 10.3253V0.538068C11.4338 0.538068 11.4458 0.51416 11.4577 0.51416H29.3348C29.8279 0.51416 30.2314 0.917605 30.2314 1.4107V9.43776Z" fill="#1AA5B9"/>
<path d="M11.4426 0.51416V10.3343H0.785645" fill="#16748D"/>
</g>
<defs>
<clipPath id="clip0_425_1409">
<rect width="157.06" height="39.8783" fill="white" transform="translate(0.785645 0.514404)"/>
</clipPath>
</defs>
</svg>
