<svg width="69" height="69" viewBox="0 0 69 69" fill="none" xmlns="http://www.w3.org/2000/svg">
<path d="M7.14111 1.72443C6.78327 1.7907 6.00132 2.08227 5.40492 2.36059C2.87353 3.5799 1.23011 6.24382 1.24337 9.10654C1.25662 10.7765 1.78675 12.3404 3.01931 14.2356C4.26513 16.1308 4.31814 16.2899 4.42417 18.0791C4.51694 19.5502 4.56996 19.7622 4.96756 20.5044C5.44468 21.4189 5.86879 21.8298 6.86279 22.3466C7.43268 22.6382 7.711 22.6912 8.66524 22.6912C9.61948 22.6912 9.8978 22.6382 10.4677 22.3466C11.4617 21.8298 11.8858 21.4189 12.3629 20.5044C12.7605 19.7622 12.8135 19.5502 12.9063 18.0791C12.9991 16.3959 13.1184 16.0115 13.9401 14.7922L14.2714 14.2886H19.4137H24.5693V19.3514V24.4274L23.35 25.6467L22.1306 26.866L23.2042 27.9661C23.7873 28.5757 24.3174 29.2119 24.3705 29.3709C24.5295 29.8878 24.3307 30.5505 23.8933 30.9083C23.509 31.2396 23.4162 31.2529 21.9053 31.2529H20.3282V34.4337V37.6145H21.9053C23.4162 37.6145 23.509 37.6278 23.8933 37.9591C24.3307 38.3169 24.5295 38.9796 24.3705 39.4965C24.3042 39.6555 23.8138 40.2652 23.2704 40.8218L22.2764 41.8556H14.9341H7.60497V37.9326C7.60497 35.2289 7.55196 33.824 7.44593 33.4529C7.23388 32.724 6.13385 31.624 5.40492 31.4119C4.1591 31.0408 3.1651 31.3059 2.23737 32.2469C1.48193 32.9891 1.24337 33.5987 1.24337 34.7518V35.494H2.30363H3.3639V34.765C3.3639 34.1554 3.41692 33.9698 3.69524 33.7048C4.07958 33.3072 4.67598 33.2807 5.10009 33.6252L5.41817 33.8771L5.48444 47.5148L5.5507 61.1524L6.04108 62.1597C6.63748 63.3658 7.41943 64.1212 8.62548 64.6778C9.35442 65.0224 9.699 65.1019 10.799 65.155C12.0846 65.2212 12.0979 65.2212 12.2569 65.6056C12.6147 66.4803 13.9666 67.302 15.0268 67.302C16.1004 67.302 17.439 66.4803 17.8101 65.5791L17.9691 65.1815H19.2679H20.5668L20.7258 65.5791C21.0969 66.4803 22.4355 67.302 23.5355 67.302C25.1789 67.302 26.6898 65.7779 26.6898 64.1212C26.6898 62.4778 25.1524 60.9404 23.509 60.9404C22.4355 60.9404 21.0969 61.7621 20.7258 62.6633L20.5668 63.0609H19.2679H17.9691L17.8101 62.6633C17.439 61.7621 16.1004 60.9404 15.0268 60.9404C13.9533 60.9404 12.6147 61.7621 12.2436 62.6633C12.0846 63.0477 12.0581 63.0609 11.2099 63.0609C9.95082 63.0609 9.36767 62.8356 8.59898 62.0669C7.72425 61.2055 7.60497 60.7548 7.60497 58.515V56.7126L16.1931 56.6728L24.7681 56.6331L25.656 56.2089C26.8886 55.6258 27.6573 54.8836 28.2537 53.6776L28.7441 52.6703L28.7838 48.469C28.8236 44.3737 28.8368 44.2544 29.1019 44.1749C29.579 44.0159 30.2417 44.2279 30.5863 44.652C30.9176 45.0364 30.9309 45.1291 30.9309 46.64V48.2172H34.1117H37.2925V46.64C37.2925 45.1291 37.3057 45.0364 37.6371 44.652C37.9949 44.2147 38.6576 44.0159 39.1745 44.1749C39.3335 44.2279 39.9697 44.7581 40.5793 45.3545L41.6793 46.4147L43.8794 44.2014L46.0927 42.0014L45.0324 40.9013C44.436 40.2917 43.9059 39.6555 43.8529 39.4965C43.6938 38.9796 43.8927 38.3169 44.33 37.9591C44.7144 37.6278 44.8071 37.6145 46.318 37.6145H47.8952V36.5542V35.494H51.076H54.2568L54.2303 39.7748L54.1905 44.0424L53.8592 44.0821C51.4868 44.3339 48.8229 45.646 47.0337 47.475C42.5541 52.0076 42.5541 59.2705 47.0337 63.8031C51.5531 68.3888 58.9087 68.4418 63.4811 63.9224C68.0668 59.403 68.1198 52.0474 63.6004 47.475C61.8112 45.646 59.1473 44.3339 56.7749 44.0821L56.4436 44.0424L56.3773 39.3772C56.311 34.9373 56.2978 34.6988 56.0327 34.3542C55.8869 34.1554 55.5954 33.8638 55.3966 33.718C55.052 33.4529 54.8267 33.4397 51.4603 33.3999L47.8952 33.3602V32.3132V31.2529H46.318C44.8071 31.2529 44.7144 31.2396 44.33 30.9083C43.8927 30.5505 43.6938 29.8878 43.8529 29.3709C43.9059 29.2119 44.436 28.5757 45.0324 27.9661L46.0927 26.866L43.8794 24.666L41.6793 22.4527L40.5793 23.5129C39.9697 24.1093 39.3335 24.6395 39.1745 24.6925C38.6576 24.8515 37.9949 24.6527 37.6371 24.2154C37.3057 23.831 37.2925 23.7382 37.2925 22.2274V20.6502H34.1117H30.9309V22.2274C30.9309 23.7382 30.9176 23.831 30.5863 24.2154C30.2019 24.6792 29.5128 24.8648 28.9694 24.6395C28.7573 24.5467 28.1609 24.0563 27.644 23.5262L26.7031 22.5719L26.6633 18.0393C26.6235 13.7055 26.6103 13.4934 26.3452 13.1488C26.1994 12.95 25.9079 12.6584 25.7091 12.5127C25.3645 12.2476 25.1524 12.2343 20.4077 12.1946L15.4642 12.1548L15.7425 11.3994C16.1136 10.3524 16.1269 7.91374 15.769 6.86673C15.0666 4.78595 13.7413 3.23531 11.9388 2.37384C10.3484 1.60515 8.83754 1.40635 7.14111 1.72443ZM10.8388 4.18955C13.7545 5.55465 14.8148 9.04028 13.1846 11.956C12.9858 12.3271 12.4822 13.1621 12.0714 13.8115C11.6605 14.4609 11.2231 15.3091 11.0906 15.6935L10.8653 16.4091H10.2954H9.72551V14.1693V11.9295L10.1231 11.7705C11.0243 11.3994 11.846 10.0608 11.846 8.98726C11.846 7.33059 10.3352 5.80646 8.69175 5.80646C7.02183 5.80646 5.48444 7.33059 5.48444 8.98726C5.48444 10.0608 6.30615 11.3994 7.20737 11.7705L7.60497 11.9295V14.1693V16.4091H7.03508H6.46519L6.23988 15.6935C6.10735 15.3091 5.66998 14.4609 5.25913 13.8115C4.10609 11.9958 3.78801 11.3596 3.54945 10.4319C2.93979 8.04628 4.02657 5.48838 6.13385 4.3751C7.16761 3.81845 7.75076 3.68592 8.95682 3.73894C9.76527 3.7787 10.1761 3.88472 10.8388 4.18955ZM9.39418 8.25833C10.0568 8.90774 9.59298 10.0475 8.66524 10.0475C8.12185 10.0475 7.60497 9.53065 7.60497 8.98726C7.60497 8.44387 8.12185 7.92699 8.66524 7.92699C8.91706 7.92699 9.19538 8.04628 9.39418 8.25833ZM10.7328 18.9538C10.64 19.4707 10.3219 19.9345 9.80503 20.3056C9.28815 20.69 8.04233 20.69 7.52545 20.3056C7.00857 19.9345 6.69049 19.4707 6.59772 18.9538L6.5182 18.5297H8.66524H10.8255L10.7328 18.9538ZM35.1719 23.3406C35.1719 24.6395 35.8479 25.7528 37.0407 26.4154C37.6636 26.76 37.8889 26.813 38.7504 26.813C39.8636 26.813 40.513 26.548 41.2022 25.8323L41.5866 25.4214L42.3553 26.1769L43.124 26.9323L42.6733 27.4094C41.9312 28.1781 41.7324 28.6817 41.7324 29.795C41.7324 30.6565 41.7854 30.8818 42.13 31.5047C42.7926 32.6975 43.9059 33.3734 45.2047 33.3734H45.7746V34.4337V35.494H45.2047C43.9059 35.494 42.7926 36.1699 42.13 37.3627C41.7854 37.9856 41.7324 38.2109 41.7324 39.0724C41.7324 40.1856 41.9974 40.8351 42.7131 41.5242L43.124 41.9086L42.3685 42.6773L41.6131 43.446L41.136 42.9954C40.3673 42.2532 39.8636 42.0544 38.7504 42.0544C37.8889 42.0544 37.6636 42.1074 37.0407 42.452C35.8479 43.1146 35.1719 44.2279 35.1719 45.5267V46.0966H34.1117H33.0514V45.5135C33.0514 44.2677 32.402 43.1544 31.2887 42.5182C30.4272 42.0279 29.632 41.9086 28.6645 42.1074C28.0416 42.2267 27.8561 42.2267 27.538 42.0544C27.2995 41.9351 26.7826 41.8556 26.1729 41.8556H25.1789L25.5898 41.4182C26.2922 40.6893 26.491 40.1724 26.491 39.0724C26.491 38.2109 26.438 37.9856 26.0934 37.3627C25.4307 36.1699 24.3174 35.494 23.0186 35.494H22.4487V34.4337V33.3734H23.0186C24.3174 33.3734 25.4307 32.6975 26.0934 31.5047C26.438 30.8818 26.491 30.6565 26.491 29.795C26.491 28.6817 26.2922 28.1781 25.55 27.4094L25.0994 26.9323L25.8681 26.1769L26.6368 25.4214L27.0211 25.8323C27.7103 26.548 28.3597 26.813 29.473 26.813C30.3345 26.813 30.5598 26.76 31.1827 26.4154C32.3755 25.7528 33.0514 24.6395 33.0514 23.3406V22.7707H34.1117H35.1719V23.3406ZM26.6898 47.8991C26.6898 52.2329 26.65 52.551 25.9211 53.386C25.5368 53.8366 24.8873 54.3137 24.6488 54.3137C24.609 54.3137 24.5693 52.7631 24.5428 50.8811C24.503 47.6473 24.4897 47.422 24.2247 47.0774C23.6018 46.2292 23.3897 46.1629 21.3885 46.1629C19.3872 46.1629 19.1751 46.2292 18.5522 47.0774C18.2872 47.422 18.2739 47.6473 18.2342 51.0136L18.1944 54.5788H17.1474H16.1004L16.0606 51.0136C16.0209 47.6473 16.0076 47.422 15.7425 47.0774C15.1196 46.2292 14.9076 46.1629 12.9063 46.1629C10.9051 46.1629 10.693 46.2292 10.0701 47.0774C9.80503 47.422 9.79178 47.6473 9.75202 51.0136L9.71226 54.5788H8.66524H7.60497V49.2774V43.9761H17.1474H26.6898V47.8991ZM58.1665 46.5473C59.6641 47.0244 60.7907 47.7268 62.01 48.9461C63.216 50.1522 63.9185 51.2654 64.4221 52.7896C64.7269 53.7306 64.7667 54.0619 64.7667 55.6391C64.7667 57.2162 64.7269 57.5475 64.4221 58.4885C63.9185 60.0127 63.216 61.1259 62.01 62.332C60.8039 63.5381 59.6906 64.2405 58.1665 64.7441C57.2255 65.0489 56.8942 65.0887 55.317 65.0887C53.7399 65.0887 53.4086 65.0489 52.4676 64.7441C50.9434 64.2405 49.8302 63.5381 48.6241 62.332C47.418 61.1259 46.7156 60.0127 46.212 58.4885C45.9072 57.5475 45.8674 57.2162 45.8674 55.6391C45.8541 54.0752 45.9072 53.7173 46.1987 52.8293C46.7156 51.2522 47.418 50.1257 48.6108 48.9329C50.0687 47.475 51.7386 46.587 53.6604 46.2292C54.8267 46.0171 56.9737 46.1762 58.1665 46.5473ZM13.9666 51.398V54.5788H12.9063H11.846V51.398V48.2172H12.9063H13.9666V51.398ZM22.4487 51.398V54.5788H21.3885H20.3282V51.398V48.2172H21.3885H22.4487V51.398ZM15.7558 63.3923C16.4185 64.0417 15.9546 65.1815 15.0268 65.1815C14.4835 65.1815 13.9666 64.6646 13.9666 64.1212C13.9666 63.5778 14.4835 63.0609 15.0268 63.0609C15.2787 63.0609 15.557 63.1802 15.7558 63.3923ZM24.2379 63.3923C24.9006 64.0417 24.4367 65.1815 23.509 65.1815C22.9656 65.1815 22.4487 64.6646 22.4487 64.1212C22.4487 63.5778 22.9656 63.0609 23.509 63.0609C23.7608 63.0609 24.0391 63.1802 24.2379 63.3923Z" fill="#1AA5B9"/>
<path d="M32.5882 27.1708C31.3954 27.3961 29.8845 28.2311 28.8905 29.2118C24.9278 33.1746 26.5712 39.7217 31.9918 41.5375C32.9991 41.882 35.2256 41.882 36.2329 41.5375C38.6848 40.7158 40.3944 38.9928 41.2161 36.5542C41.5607 35.5469 41.5607 33.3204 41.2161 32.3131C40.5137 30.2456 39.1884 28.6817 37.3859 27.8202C35.7955 27.0515 34.2846 26.8527 32.5882 27.1708ZM36.2859 29.636C37.492 30.1926 38.2606 30.9613 38.857 32.1541C39.3209 33.1083 39.3474 33.2276 39.3474 34.4337C39.3474 35.6397 39.3209 35.759 38.857 36.7132C38.2606 37.9193 37.492 38.6615 36.2594 39.2446C35.4509 39.629 35.2521 39.6687 34.1123 39.6687C32.9726 39.6687 32.7738 39.629 31.9653 39.2446C30.7327 38.6615 29.964 37.9193 29.3676 36.7132C28.9038 35.759 28.8773 35.6397 28.8773 34.4469C28.8773 33.2939 28.917 33.0951 29.3014 32.2866C29.8315 31.1601 30.587 30.3384 31.581 29.8215C32.6147 29.2649 33.1979 29.1323 34.4039 29.1853C35.2124 29.2251 35.6232 29.3311 36.2859 29.636Z" fill="#1AA5B9"/>
<path d="M33.0517 31.4252C32.4023 31.6373 31.289 32.777 31.0902 33.453C30.7191 34.6988 30.9842 35.6928 31.9252 36.6205C33.2638 37.9724 34.9602 37.9724 36.2988 36.6205C37.5976 35.3349 37.6374 33.6783 36.4048 32.3132C35.5433 31.3589 34.3108 31.0276 33.0517 31.4252ZM34.8409 33.7048C35.5036 34.3542 35.0397 35.494 34.112 35.494C33.8602 35.494 33.5818 35.3747 33.383 35.1627C32.7204 34.5132 33.1842 33.3734 34.112 33.3734C34.3638 33.3734 34.6421 33.4927 34.8409 33.7048Z" fill="#1AA5B9"/>
<path d="M57.6363 1.75092C56.8411 2.09551 56.4832 2.71841 56.3507 3.95098C56.3242 4.20279 56.1121 4.37508 55.3169 4.77268C53.5277 5.66066 53.2362 5.71367 48.2927 5.79319C43.2829 5.88597 43.2829 5.88597 42.3419 6.94623C41.613 7.76794 41.5334 8.2053 41.5334 11.1078C41.5334 14.1693 41.613 14.5139 42.5274 15.4151C43.2696 16.1706 43.8793 16.4091 45.0191 16.4091H45.7613L45.801 18.914C45.8408 21.6575 45.8805 21.7767 46.7553 22.4261C47.0866 22.678 47.3119 22.7045 48.9553 22.7045C50.5987 22.7045 50.824 22.678 51.1554 22.4261C52.0301 21.7767 52.0699 21.6575 52.1096 18.967L52.1494 16.5019L52.7325 16.5814C53.5542 16.7007 54.8663 17.1646 55.6615 17.6152C56.3242 17.9863 56.3507 18.026 56.4037 18.6754C56.47 19.3779 56.7483 19.855 57.3579 20.3056C57.6893 20.5574 57.9146 20.5839 59.558 20.5839C61.2014 20.5839 61.4267 20.5574 61.7581 20.3056C62.6063 19.6827 62.6725 19.4839 62.7123 17.3369L62.7521 15.3754L63.375 15.2826C64.1569 15.1766 65.4292 14.5006 65.8666 13.9838C66.0521 13.7717 66.357 13.2813 66.5558 12.9102C66.8473 12.3403 66.9004 12.062 66.9004 11.1078C66.9004 10.1535 66.8473 9.87522 66.5558 9.30533C66.357 8.93424 66.0521 8.44386 65.8666 8.23181C65.4292 7.71493 64.1569 7.03901 63.375 6.93298L62.7521 6.84021L62.7123 4.87871C62.6725 3.12927 62.646 2.8642 62.3942 2.54612C61.7846 1.72441 61.5328 1.63164 59.717 1.59188C58.511 1.57863 57.9146 1.61839 57.6363 1.75092ZM60.6183 11.1078V18.5297H59.558H58.4977V11.1078V3.68591H59.558H60.6183V11.1078ZM56.3772 11.1078V15.6139L55.8868 15.3754C54.5747 14.7127 52.653 14.2886 50.9831 14.2886H50.0156V11.1078V7.92698H50.9831C52.6265 7.92698 54.9061 7.4101 55.9796 6.80045C56.1651 6.69442 56.3242 6.6149 56.3507 6.60165C56.3639 6.60165 56.3772 8.62941 56.3772 11.1078ZM47.8951 11.1078V14.2886H46.1059C44.3697 14.2886 44.2901 14.2753 43.9853 13.9573C43.654 13.6392 43.654 13.6127 43.654 11.1078C43.654 8.6029 43.654 8.5764 43.9853 8.25832C44.2901 7.94024 44.3697 7.92698 46.1059 7.92698H47.8951V11.1078ZM63.9184 9.35834C64.5678 9.83546 64.7931 10.2861 64.7931 11.1078C64.7931 11.6909 64.7268 11.9825 64.5148 12.2476C64.1437 12.7645 63.6798 13.0825 63.1762 13.1753L62.7388 13.2548V11.1078V8.94749L63.1762 9.04026C63.4015 9.08002 63.7461 9.22581 63.9184 9.35834ZM50.0156 18.5297V20.6502H48.9553H47.8951V18.5297V16.4091H48.9553H50.0156V18.5297Z" fill="#1AA5B9"/>
<path d="M48.6523 57.1143V56.2318H57.1151V57.1143H48.6523ZM48.6523 54.9396V54.057H57.1151V54.9396H48.6523ZM56.0907 61.2275C55.2607 61.2275 54.4885 61.0909 53.7741 60.8178C53.0702 60.5341 52.4556 60.1401 51.9303 59.6358C51.405 59.121 50.9952 58.5222 50.7011 57.8393C50.4069 57.1564 50.2598 56.4052 50.2598 55.5857C50.2598 54.7662 50.4069 54.015 50.7011 53.3321C50.9952 52.6492 51.405 52.0556 51.9303 51.5513C52.4556 51.0365 53.0702 50.6425 53.7741 50.3693C54.4885 50.0857 55.2607 49.9438 56.0907 49.9438C56.9523 49.9438 57.7455 50.0909 58.4704 50.3851C59.1953 50.6688 59.8047 51.0943 60.2985 51.6616L59.2899 52.6545C58.8591 52.2132 58.3811 51.8875 57.8558 51.6774C57.341 51.4567 56.7789 51.3464 56.1695 51.3464C55.5497 51.3464 54.9771 51.4515 54.4518 51.6616C53.9265 51.8717 53.4642 52.1659 53.065 52.5441C52.6762 52.9224 52.3768 53.3741 52.1667 53.8994C51.9565 54.4143 51.8515 54.9763 51.8515 55.5857C51.8515 56.1951 51.9565 56.7624 52.1667 57.2877C52.3768 57.8025 52.6762 58.249 53.065 58.6272C53.4642 59.0055 53.9265 59.2996 54.4518 59.5098C54.9771 59.7199 55.5497 59.8249 56.1695 59.8249C56.7789 59.8249 57.341 59.7199 57.8558 59.5098C58.3811 59.2891 58.8591 58.9529 59.2899 58.5012L60.2985 59.494C59.8047 60.0613 59.1953 60.4921 58.4704 60.7863C57.7455 61.0804 56.9523 61.2275 56.0907 61.2275Z" fill="#1AA5B9"/>
</svg>
