<svg width="63" height="62" viewBox="0 0 63 62" fill="none" xmlns="http://www.w3.org/2000/svg">
<path d="M21.4933 18.1688V16.8672H33.9743V18.1688H21.4933ZM21.4933 14.9614V13.6598H33.9743V14.9614H21.4933ZM32.4636 24.2349C31.2395 24.2349 30.1006 24.0335 29.047 23.6306C28.0088 23.2123 27.1024 22.6312 26.3276 21.8875C25.5529 21.1282 24.9486 20.245 24.5148 19.2379C24.0809 18.2308 23.864 17.1229 23.864 15.9143C23.864 14.7057 24.0809 13.5978 24.5148 12.5907C24.9486 11.5835 25.5529 10.7081 26.3276 9.96432C27.1024 9.20507 28.0088 8.62402 29.047 8.22116C30.1006 7.80281 31.2395 7.59363 32.4636 7.59363C33.7341 7.59363 34.904 7.81055 35.9731 8.24441C37.0423 8.66276 37.941 9.2903 38.6692 10.127L37.1817 11.5913C36.5464 10.9405 35.8414 10.4601 35.0667 10.1503C34.3074 9.82486 33.4785 9.66217 32.5798 9.66217C31.6656 9.66217 30.8211 9.81712 30.0464 10.127C29.2717 10.4369 28.5899 10.8708 28.0011 11.4286C27.4278 11.9864 26.9862 12.6526 26.6763 13.4274C26.3664 14.1866 26.2114 15.0156 26.2114 15.9143C26.2114 16.813 26.3664 17.6497 26.6763 18.4244C26.9862 19.1837 27.4278 19.8422 28.0011 20.4C28.5899 20.9578 29.2717 21.3917 30.0464 21.7015C30.8211 22.0114 31.6656 22.1664 32.5798 22.1664C33.4785 22.1664 34.3074 22.0114 35.0667 21.7015C35.8414 21.3762 36.5464 20.8803 37.1817 20.2141L38.6692 21.6783C37.941 22.515 37.0423 23.1503 35.9731 23.5842C34.904 24.018 33.7341 24.2349 32.4636 24.2349Z" fill="#1AA5B9" stroke="#1AA5B9" stroke-width="0.599869"/>
<path d="M45.9094 15.9299C45.9094 24.0168 39.3537 30.5724 31.267 30.5724C23.1802 30.5724 16.6245 24.0167 16.6245 15.9299C16.6245 7.84358 23.1802 1.28754 31.267 1.28754C39.3537 1.28754 45.9094 7.84319 45.9094 15.9299Z" stroke="#1AA5B9" stroke-width="2.54464" stroke-miterlimit="10" stroke-linecap="round" stroke-linejoin="round"/>
<path d="M7.84985 48.1202V37.2441H54.684V48.1202" stroke="#1AA5B9" stroke-width="2.54464" stroke-miterlimit="10" stroke-linecap="round"/>
<path d="M31.2668 30.5246V48.1203" stroke="#1AA5B9" stroke-width="2.54464" stroke-miterlimit="10" stroke-linecap="round"/>
<path d="M1.57935 48.1203H14.1216V60.6625H1.57935V48.1203Z" stroke="#1AA5B9" stroke-width="2.54464" stroke-miterlimit="10" stroke-linecap="round"/>
<path d="M24.9963 48.1203H37.5386V60.6625H24.9963V48.1203Z" stroke="#1AA5B9" stroke-width="2.54464" stroke-miterlimit="10" stroke-linecap="round"/>
<path d="M48.4122 48.1203H60.9545V60.6625H48.4122V48.1203Z" stroke="#1AA5B9" stroke-width="2.54464" stroke-miterlimit="10" stroke-linecap="round"/>
</svg>
