<svg width="60" height="61" viewBox="0 0 60 61" fill="none" xmlns="http://www.w3.org/2000/svg">
<path d="M23.2985 50.878L22.0988 49.5092L25.5588 46.866C26.5627 46.099 27.8318 45.6979 29.126 45.7333L37.8832 45.987C40.5161 46.0637 43.1237 45.1374 45.0304 43.45L50.0688 39.0015C50.0941 38.9779 50.1256 38.9484 50.1383 38.9366L56.3131 32.1163L56.3257 32.1045C56.572 31.8508 56.7045 31.5263 56.7045 31.1959C56.7045 30.8537 56.5656 30.5292 56.3194 30.2814C55.688 29.6442 55.3155 29.4731 54.6021 29.4731C54.3874 29.4731 54.1727 29.4967 53.9644 29.538C53.0236 29.7327 52.3986 30.3227 51.6094 31.0661C51.5273 31.1428 51.4515 31.2136 51.3695 31.2903L48.08 34.5765C47.8717 34.7712 47.6507 34.9246 47.4171 35.0544L42.0441 37.9277L41.5579 37.2315C41.1665 36.6769 40.5161 36.3465 39.8153 36.3465H33.2743C32.3146 36.3465 31.3675 36.2226 30.4457 35.9748L30.4015 35.9571L30.3636 35.9453L24.839 33.9629C22.3199 33.0603 19.5607 33.2432 17.2625 34.4762C16.8647 34.6945 16.5175 34.9128 16.246 35.137C16.2144 35.1665 16.1828 35.1901 16.1576 35.2137C16.1513 35.2196 16.145 35.2255 16.1323 35.2314L11.8389 39.2611L10.4941 38.0103L14.7938 33.9748C14.8443 33.9276 14.8822 33.8981 14.9138 33.8686C14.9201 33.8627 14.9264 33.8568 14.939 33.8509L14.9832 33.8096C15.3494 33.5087 15.804 33.2196 16.3154 32.9364C19.1061 31.4378 22.4587 31.2078 25.5146 32.3051L31.0012 34.2757C31.7399 34.4704 32.5039 34.5648 33.2742 34.5648H39.809C40.8508 34.5648 41.8294 34.9424 42.5618 35.6032L46.489 33.5028C46.5711 33.4615 46.6469 33.4025 46.729 33.3317L50.0248 30.0455C50.1068 29.9688 50.1889 29.8921 50.271 29.8154C51.1549 28.9776 52.0704 28.1162 53.5542 27.8094C53.8952 27.7386 54.2487 27.6973 54.6086 27.6973C56.0544 27.6973 56.8942 28.246 57.715 29.0719C58.2895 29.6501 58.6052 30.3994 58.6052 31.19C58.6052 31.957 58.3021 32.7004 57.7465 33.2785L51.5843 40.087C51.5212 40.1578 51.458 40.2168 51.4075 40.264L51.3886 40.2817L46.3439 44.7361C44.0709 46.7421 40.9709 47.8453 37.8329 47.7568L29.0757 47.5031C28.236 47.4795 27.4088 47.7391 26.7648 48.2347L23.2985 50.878Z" fill="#1AA5B9" stroke="#1AA5B9" strokeWidth="0.884052"/>
<path d="M18.1385 59.7219H18.0564C17.4566 59.7042 16.8948 59.4682 16.4907 59.0552L1.53391 44.0691C1.12352 43.662 0.908845 43.1251 0.927791 42.5646C0.946736 42.0042 1.19929 41.4791 1.64125 41.1015L7.08999 36.3521C7.52563 35.9686 8.10019 35.768 8.69996 35.7857C9.29977 35.8034 9.86164 36.0394 10.2657 36.4524L11.8505 38.0395L23.3794 49.5917L25.2231 51.4384C25.6335 51.8455 25.8481 52.3824 25.8292 52.9428C25.8102 53.5033 25.5577 54.0225 25.1157 54.4059L19.667 59.1553C19.2503 59.5211 18.7136 59.7217 18.1391 59.7217L18.1385 59.7219ZM8.62368 37.5496C8.56685 37.5496 8.47215 37.5614 8.38376 37.6381L2.93501 42.3934C2.84031 42.476 2.82768 42.5704 2.82137 42.6235C2.82137 42.6766 2.82768 42.771 2.91607 42.8595L17.8728 57.8457C17.9612 57.9342 18.0622 57.946 18.1191 57.9519C18.1759 57.9519 18.2769 57.946 18.3716 57.8634L23.8267 53.1081C23.9151 53.0314 23.9404 52.9429 23.9404 52.878C23.9404 52.8249 23.934 52.7305 23.8457 52.642L22.002 50.7953L10.4668 39.2431L8.88197 37.656C8.79357 37.5675 8.69256 37.5498 8.63573 37.5498C8.63573 37.5557 8.62942 37.5498 8.6231 37.5498L8.62368 37.5496Z" fill="#1AA5B9" stroke="#1AA5B9" strokeWidth="0.884052"/>
<path d="M18.5893 54.6015C17.7304 54.6015 17.0356 53.9523 17.0356 53.1497C17.0356 52.3471 17.7304 51.6979 18.5893 51.6979C19.4482 51.6979 20.1429 52.3471 20.1429 53.1497C20.1429 53.9523 19.4482 54.6015 18.5893 54.6015ZM18.5893 52.831C18.3998 52.831 18.2482 52.9727 18.2482 53.1497C18.2482 53.3268 18.3998 53.4684 18.5893 53.4684C18.7788 53.4684 18.9303 53.3268 18.9303 53.1497C18.9303 52.9727 18.7788 52.831 18.5893 52.831Z" fill="#1AA5B9" stroke="#1AA5B9" strokeWidth="0.884052"/>
<path d="M26.7524 17.4154V17.548H26.885H29.4236C29.5177 17.8626 29.6331 18.1681 29.7698 18.4646C30.2087 19.4169 30.8204 20.2521 31.6037 20.9695L31.6047 20.9704C32.3883 21.6733 33.3043 22.2216 34.3512 22.6159L34.3512 22.6159L34.3533 22.6167C35.4169 22.9966 36.5648 23.186 37.7961 23.186C39.0741 23.186 40.2538 22.9821 41.3337 22.5726C42.4148 22.1626 43.3262 21.5612 44.0653 20.7676L44.1562 20.67L44.058 20.5797L42.5786 19.2188L42.4859 19.1335L42.396 19.2217C41.7761 19.8291 41.09 20.2797 40.3374 20.5752C39.599 20.8567 38.7909 20.9983 37.9117 20.9983C37.0166 20.9983 36.1926 20.8565 35.4384 20.5746C34.6826 20.2921 34.0189 19.8973 33.4462 19.3905C32.8903 18.8848 32.4624 18.2885 32.1617 17.6004C32.1543 17.583 32.1469 17.5655 32.1397 17.548H39.2987H39.4313V17.4154V16.2058V16.0732H39.2987H31.7548C31.7252 15.8279 31.7103 15.5769 31.7103 15.3201C31.7103 15.0625 31.7253 14.8115 31.7551 14.5671H39.2987H39.4313V14.4344V13.2248V13.0922H39.2987H32.1484C32.1528 13.082 32.1572 13.0719 32.1616 13.0618L32.1619 13.0609C32.4627 12.3583 32.8906 11.755 33.4462 11.2497C34.0189 10.7429 34.6826 10.3481 35.4384 10.0656C36.1926 9.78365 37.0166 9.64193 37.9117 9.64193C38.7903 9.64193 39.5979 9.7905 40.3359 10.0861L40.3359 10.0861L40.3387 10.0872C41.0914 10.3685 41.7774 10.8048 42.3971 11.398L42.487 11.4841L42.5786 11.3998L44.058 10.0389L44.1562 9.94861L44.0653 9.85097C43.326 9.05722 42.4143 8.46288 41.333 8.06736C40.2532 7.65802 39.0738 7.45418 37.7961 7.45418C36.5644 7.45418 35.4161 7.65088 34.3523 8.04553C33.3046 8.42551 32.3881 8.97418 31.6042 9.69188C30.8205 10.3951 30.2088 11.2232 29.7698 12.1756C29.6331 12.4721 29.5177 12.7776 29.4236 13.0922H26.885H26.7524V13.2248V14.4344V14.5671H26.885H29.1434C29.1213 14.8134 29.1103 15.0645 29.1103 15.3201C29.1103 15.5757 29.1213 15.8268 29.1434 16.0732H26.885H26.7524V16.2058V17.4154Z" fill="#1AA5B9" stroke="#1AA5B9" strokeWidth="0.265216"/>
<path d="M34.0908 0.509668C27.7906 1.44503 22.7033 5.42855 20.6895 11.0187C19.5944 14.0228 19.5944 17.8083 20.6895 20.8125C23.4687 28.5154 32.0771 32.9611 40.4499 31.0244C46.6677 29.5938 51.543 24.895 52.8031 19.1288C54.2044 12.7354 51.2722 6.26487 45.3841 2.74352C42.1928 0.828789 37.7885 -0.0405426 34.0908 0.509668ZM39.4489 3.48081C43.9827 4.41616 47.8924 7.69542 49.3762 11.789C49.9061 13.2305 50.071 14.2539 50.071 15.9156C50.071 18.7767 49.2231 21.2196 47.4449 23.4535C44.8189 26.7547 40.8621 28.6254 36.5049 28.6254C32.1477 28.6254 28.1909 26.7547 25.5649 23.4535C23.7867 21.2196 22.9388 18.7767 22.9388 15.9156C22.9388 13.6927 23.3745 11.9761 24.4108 10.0833C26.2479 6.76006 29.8867 4.15206 33.6197 3.49181C34.1379 3.40378 34.6678 3.30474 34.7974 3.27173C35.3037 3.15068 38.6011 3.30474 39.4489 3.48081Z" fill="#1AA5B9"/>
</svg>
