<svg width="68" height="69" viewBox="0 0 68 69" fill="none" xmlns="http://www.w3.org/2000/svg">
<path d="M26.9565 5.06428C26.6252 5.39561 26.6252 5.39561 26.6252 7.927C26.6252 10.4319 26.6252 10.4584 26.9565 10.7765L27.2746 11.1078H32.2579H37.2544L37.2014 13.785C37.1616 16.3959 37.1483 16.4887 36.8037 17.1513C36.2736 18.1586 35.876 18.5694 34.9483 19.0731C34.1796 19.4839 34.0205 19.5237 32.9868 19.5104C32.0325 19.5104 31.7542 19.4574 31.1843 19.1658C30.1903 18.649 29.7662 18.2381 29.2891 17.3236C28.9048 16.6079 28.8385 16.3561 28.759 15.1236C28.6794 13.8778 28.6397 13.7055 28.3614 13.4802C27.924 13.1223 27.3409 13.1621 26.93 13.5729C26.5987 13.9043 26.5987 13.944 26.6517 15.3224C26.7312 16.9128 27.0095 17.814 27.7517 18.9273L28.2023 19.5899L27.8445 19.6695C26.1481 20.0538 25.4589 20.3851 24.3854 21.3791C23.6167 22.1081 23.5769 22.1213 23.0865 22.0021C22.8082 21.9225 22.4239 21.8298 22.2251 21.79L21.8672 21.7105L22.3178 21.0478C22.5564 20.69 22.901 20.0406 23.0733 19.6297C23.3649 18.8875 23.3781 18.7417 23.3781 14.8718V10.8957L22.8877 9.8885C22.2913 8.68244 21.5226 7.94025 20.2901 7.35711L19.4021 6.933H17.0695H14.7502L13.7429 7.42337C12.5369 8.01977 11.7947 8.78847 11.2115 10.021L10.7874 10.909V14.885C10.7874 18.7417 10.8007 18.8875 11.0923 19.6297C11.2645 20.0406 11.6091 20.69 11.8477 21.0478L12.2983 21.7105L11.9405 21.7767C9.30305 22.3201 7.44758 23.937 6.74515 26.3094C6.65238 26.6275 6.55961 26.8793 6.55961 26.8793C6.54635 26.8793 5.85718 26.6672 5.02222 26.4154C4.18726 26.1636 3.36555 25.9516 3.19325 25.9516C2.75589 25.9516 2.23901 26.5214 2.23901 26.9853C2.23901 27.7805 2.39805 27.8468 7.60662 29.4107C10.3103 30.2191 12.5369 30.9083 12.5634 30.9348C12.5899 30.9613 12.1923 32.6843 11.6621 34.765C11.1453 36.8326 10.7212 38.7145 10.7212 38.9398C10.7212 39.9338 12.179 40.2519 12.6296 39.3507C12.7224 39.1651 13.0935 37.8266 13.4513 36.3819C14.2068 33.3204 13.8224 33.5855 16.4068 34.3542C17.3081 34.6192 18.4744 34.8976 18.9912 34.9771C20.3166 35.1891 22.4504 35.0434 24.0805 34.6457C26.0288 34.1554 26.3866 34.1819 27.7782 34.9108C29.4879 35.7988 29.4746 35.7458 28.3349 36.5145C26.9433 37.4555 25.5649 38.1711 24.0805 38.741C22.0793 39.4965 21.4034 40.3049 21.3901 41.9218C21.3901 43.393 22.1058 44.5062 23.5902 45.3014C24.2793 45.6725 24.6107 45.7521 25.4589 45.8051C26.824 45.8846 27.3011 45.7123 29.8722 44.2412L31.953 43.0484L33.0265 43.3797C35.664 44.2147 38.4737 44.0424 40.7002 42.9026L41.2171 42.6375L42.7678 43.5255C44.5172 44.5327 44.9281 44.6123 45.4052 44.0556C45.7498 43.6448 45.7895 43.2339 45.5112 42.8231C45.2196 42.4122 41.681 40.3977 41.2436 40.3977C41.0448 40.3977 40.6605 40.5302 40.4087 40.676C39.64 41.1531 38.3942 41.564 37.2676 41.723C35.982 41.8953 34.6832 41.7363 33.3314 41.2459C31.7542 40.6628 31.953 40.623 29.1963 42.1869C26.6119 43.6713 26.1083 43.8436 25.101 43.658C24.4251 43.5255 23.4444 42.5713 23.4444 42.0279C23.4444 41.405 23.789 41.1266 25.2733 40.5435C27.7252 39.576 29.6867 38.3434 32.3374 36.0771C33.2386 35.3084 34.2989 34.5132 34.6832 34.3409C35.5977 33.9036 36.6447 33.8903 38.2219 34.2747C40.8063 34.8843 43.3509 34.9638 45.7895 34.5C46.3859 34.3939 48.4402 33.8505 50.3354 33.3072C52.2439 32.7638 53.8873 32.3132 53.9801 32.3132C54.2187 32.3132 57.5452 45.5665 57.3199 45.6328C57.2404 45.6593 56.0079 45.8316 54.5765 46.0304L51.9656 46.375L50.3222 45.4472C48.5197 44.4135 48.0558 44.3074 47.592 44.8111C47.2341 45.1822 47.2076 45.8713 47.539 46.1894C47.6582 46.3219 48.5727 46.8918 49.5667 47.4617C51.78 48.7208 52.0053 48.9461 52.0053 49.8341C52.0053 50.4172 51.9523 50.5365 51.515 50.9474C50.627 51.7558 50.6668 51.7691 44.8485 48.4027C38.7387 44.8508 38.6857 44.8243 38.1954 45.0629C37.9833 45.1557 37.7447 45.4075 37.6387 45.6195C37.2544 46.4412 37.4267 46.5738 42.4629 49.4762C45.8425 51.4245 47.1414 52.2329 47.3269 52.5245C47.6582 53.0414 47.5787 53.9426 47.1679 54.38C46.7968 54.7776 46.0811 55.0294 45.6835 54.9101C45.5112 54.8571 43.3111 53.6245 40.793 52.1799C38.2749 50.7221 36.0748 49.5425 35.9158 49.5425C35.5447 49.5425 34.8423 50.2184 34.8423 50.5763C34.8423 50.7221 34.9615 50.9871 35.1073 51.1727C35.2531 51.345 37.1086 52.5113 39.2424 53.7306C41.3762 54.9631 43.3244 56.1559 43.563 56.3812C44.5305 57.3355 43.7883 58.9524 42.3702 58.9524C42.0388 58.9524 40.8858 58.356 37.7845 56.5668C35.3459 55.1619 33.5169 54.1812 33.3049 54.1812C32.8145 54.1812 32.5097 54.38 32.3241 54.8306C32.006 55.6125 32.2048 55.7848 36.2339 58.1174C38.7918 59.6018 40.0111 60.3705 40.1701 60.6356C40.8195 61.6693 40.0641 63.0609 38.858 63.0609C38.646 63.0609 37.811 62.6766 36.923 62.1862C35.6507 61.4705 35.3591 61.2585 35.3061 60.9669C35.1736 60.344 34.5507 59.2175 34.1398 58.8729C33.5169 58.3427 32.7482 58.0114 31.9928 57.9319C31.2904 57.8524 31.2904 57.8524 31.2108 57.3355C31.0916 56.58 30.694 55.8909 30.071 55.321C29.3951 54.7113 28.865 54.4728 27.8975 54.3667C27.2481 54.2872 27.1553 54.2475 27.1553 53.9824C27.1553 53.1342 26.4661 52.0209 25.5649 51.4112C24.6769 50.8148 23.6432 50.6425 22.6227 50.9209C22.1721 51.0401 21.7745 51.0932 21.7214 51.0401C21.6817 50.9871 21.4696 50.7088 21.2708 50.4305C20.1973 48.9726 18.0105 48.6413 16.3538 49.6883L15.7309 50.0859L13.1598 49.0654C11.7417 48.5088 10.5886 48.0184 10.5886 47.9654C10.5886 47.9256 10.8669 46.7461 11.2115 45.3412L11.8344 42.7966L11.5694 42.4255C11.3573 42.1471 11.1585 42.0411 10.7742 42.0146C9.9127 41.9483 9.80668 42.1737 8.87894 45.8978C8.42833 47.7136 8.00422 49.4232 7.93795 49.6883L7.80542 50.1654L5.59211 49.7281C4.3728 49.4762 3.27277 49.2774 3.14024 49.2774C2.75589 49.2774 2.23901 49.8738 2.23901 50.3112C2.23901 51.1329 2.46432 51.2389 5.61862 51.8751C7.20902 52.1932 8.62713 52.4582 8.75966 52.4582C9.19702 52.4582 9.60788 51.9016 9.79342 51.0269C9.8862 50.5763 10.032 50.2052 10.1115 50.2052C10.2971 50.2052 14.3393 51.7823 14.4586 51.9016C14.5116 51.9546 14.2863 52.445 13.9682 53.0016C13.2791 54.1944 13.0405 55.0161 13.1465 55.9041C13.3586 57.6403 14.6972 58.9524 16.4599 59.1644C17.1888 59.244 17.1888 59.2572 17.2683 59.7741C17.3876 60.5295 17.7719 61.2187 18.3948 61.7754C19.3756 62.6633 20.7142 62.9814 21.9202 62.6103L22.5829 62.3983L22.848 62.7694C23.8817 64.2007 25.5384 64.8236 27.0493 64.32C27.7252 64.1079 27.7517 64.1079 27.8842 64.3465C27.9505 64.479 28.2818 64.8501 28.6132 65.1815C29.7132 66.2815 31.3699 66.5333 32.8012 65.8044C33.5567 65.42 33.994 64.9694 34.5109 64.0814L34.8688 63.4585L35.6772 63.9356C37.7712 65.1417 38.646 65.367 39.8918 65.0092C41.2966 64.5983 42.3702 63.2995 42.4894 61.8681C42.5557 61.1127 42.5822 61.0729 42.9135 61.0729C43.4172 61.0729 44.5305 60.5163 45.0341 59.9994C45.6305 59.4163 46.1076 58.3692 46.1076 57.6668C46.1076 57.1632 46.1474 57.0969 46.4787 57.0174C47.2872 56.8451 47.698 56.6728 48.2149 56.3017C48.8245 55.8511 49.5005 54.7643 49.6197 54.0221C49.7125 53.5185 49.7125 53.5185 50.3354 53.5185C51.462 53.5185 52.2969 53.1739 53.0789 52.4052C54.0729 51.4112 54.4175 50.1389 54.0464 48.8401C53.9668 48.5485 53.9271 48.3099 53.9536 48.2834C54.0066 48.2172 57.9428 47.6738 57.9826 47.7268C57.9959 47.7401 58.1284 48.2304 58.2874 48.8136C58.5525 49.8871 58.8706 50.3377 59.3477 50.3377C59.467 50.3377 60.8851 50.0726 62.4755 49.7546C65.6298 49.1184 65.8551 49.0124 65.8551 48.1907C65.8551 47.7533 65.3382 47.1569 64.9539 47.1569C64.8213 47.1569 63.7213 47.3557 62.502 47.6075L60.2887 48.0449L60.1562 47.5678C59.7718 46.0834 55.5175 28.9866 55.5175 28.8938C55.5175 28.8275 57.744 28.1118 60.461 27.3034C65.6828 25.7262 65.8551 25.6467 65.8551 24.8648C65.8551 24.4009 65.3382 23.831 64.9141 23.831C64.6888 23.831 59.3212 25.3684 58.2079 25.7528C58.1019 25.7925 57.8898 25.5142 57.691 25.1166C56.9223 23.619 54.9343 22.1213 53.4102 21.896C53.0789 21.843 52.7608 21.79 52.7078 21.7502C52.6548 21.7237 52.8138 21.4057 53.0656 21.0346C53.662 20.1598 54.0464 19.1128 54.1391 18.0128C54.2187 17.1513 54.2054 17.0718 53.8873 16.7537C53.45 16.3164 52.8403 16.3031 52.4162 16.714C52.1909 16.9393 52.0981 17.2309 52.0318 17.8538C51.9258 18.8213 51.3162 20.0803 50.7065 20.5972C50.4945 20.7827 50.0041 21.0876 49.633 21.2864C49.0631 21.5779 48.7848 21.631 47.8305 21.631C46.7968 21.6442 46.6377 21.6045 45.869 21.1936C44.9413 20.69 44.5437 20.2791 44.0136 19.2719C43.6822 18.6225 43.6557 18.5032 43.616 16.1308L43.563 13.679L44.0931 13.3344C44.8353 12.844 45.4714 12.5922 46.4257 12.4199C47.6185 12.2211 48.5727 12.4331 50.9318 13.4404C52.0318 13.9043 53.0656 14.2886 53.2379 14.2886C53.4102 14.2886 53.7018 14.1296 53.8873 13.944C54.2187 13.6127 54.2187 13.5597 54.1656 12.3934C53.9801 9.19932 52.0584 7.21132 48.8378 6.87999C47.9631 6.78721 47.3004 6.58841 45.2461 5.75345C43.8678 5.19681 42.6087 4.7462 42.4629 4.7462C42.3171 4.7462 42.0653 4.82572 41.9195 4.93174C41.5882 5.1703 40.8858 6.65468 40.6075 7.7282C40.2099 9.27884 40.4219 11.4656 41.1111 12.7512C41.3762 13.2416 41.4159 13.5597 41.4822 16.0778C41.5617 19.1658 41.681 19.6827 42.5955 21.0478C42.834 21.4057 42.9931 21.7237 42.9533 21.7635C42.9135 21.8033 42.7015 21.843 42.4894 21.843C42.1979 21.843 41.9195 21.684 41.4689 21.2599C40.581 20.4382 39.6002 19.961 38.1291 19.6562L37.7712 19.5899L38.2219 18.9273C38.4604 18.5694 38.805 17.92 38.9773 17.5092C39.2689 16.767 39.2821 16.6212 39.2821 12.7645V8.78847L38.858 7.90049C38.2749 6.66793 37.5327 5.89924 36.3266 5.30284L35.3194 4.81246L31.3036 4.7727L27.2878 4.73294L26.9565 5.06428ZM35.0278 7.02577C35.6242 7.19807 36.9628 8.41737 36.9628 8.77522C36.9628 8.96076 36.4989 8.98727 32.8543 8.98727H28.7457V7.927V6.86673H31.6084C33.4772 6.86673 34.67 6.91975 35.0278 7.02577ZM48.4799 8.97401C49.7655 9.10655 50.3089 9.33186 50.9848 9.96801C51.4222 10.3656 52.0186 11.3464 51.8993 11.4524C51.8728 11.4789 51.2499 11.2668 50.521 10.9753C48.6655 10.2331 47.4064 10.0608 45.869 10.3656C45.2064 10.4981 44.3184 10.7897 43.8015 11.0415C43.1123 11.3861 42.8473 11.4656 42.7678 11.3331C42.4364 10.803 42.4762 8.47039 42.834 7.63543L43.0328 7.14505L45.1666 8.00652C46.9293 8.70895 47.5125 8.88124 48.4799 8.97401ZM19.1238 9.14631C19.7202 9.3186 21.0588 10.5379 21.0588 10.8957C21.0588 11.0813 20.6082 11.1078 17.0828 11.1078C13.5574 11.1078 13.1068 11.0813 13.1068 10.8957C13.1068 10.5777 14.4453 9.3186 14.9622 9.15956C15.5984 8.96076 18.4479 8.94751 19.1238 9.14631ZM21.2973 15.9055C21.2576 18.5164 21.2443 18.6092 20.8997 19.2719C20.3696 20.2791 19.972 20.69 19.0443 21.1936C18.2756 21.6045 18.1165 21.6442 17.0828 21.631C16.1285 21.631 15.8502 21.5779 15.2803 21.2864C14.2863 20.7695 13.8622 20.3586 13.3586 19.4309L12.908 18.5959L12.8682 15.9055L12.8152 13.2283H17.0828H21.3503L21.2973 15.9055ZM34.0471 22.3997C34.0471 23.1551 34.0471 23.1684 33.5169 23.4334L32.9868 23.6985L32.4567 23.4334C31.9265 23.1684 31.9265 23.1551 31.9265 22.3997V21.6442H32.9868H34.0471V22.3997ZM29.806 22.9828C29.806 24.2286 29.8192 24.2684 30.2036 24.6262L30.6144 25.0106L30.1903 28.7878L29.7662 32.5782L30.2698 33.3337C30.8265 34.1819 30.8132 34.1819 29.2096 33.2541C27.6192 32.3397 26.8505 32.1276 25.5251 32.2204L24.4914 32.2867L24.5311 28.5625C24.5709 24.8913 24.5842 24.8118 24.9022 24.1623C25.4721 23.0226 26.5589 22.1213 27.7517 21.8298C27.977 21.7767 28.5204 21.737 28.9843 21.7237L29.806 21.7105V22.9828ZM39.2026 22.2406C40.1171 22.731 40.5147 23.1418 41.0448 24.1491L41.4027 24.825L41.4424 28.748L41.4822 32.6577L40.687 32.565C40.2364 32.512 39.2954 32.3529 38.5797 32.2071C37.8773 32.0481 37.0291 31.8758 36.6977 31.8228L36.1013 31.7168L35.7302 28.3637L35.3591 25.0106L35.77 24.6262C36.1543 24.2684 36.1676 24.2286 36.1676 22.9696V21.6707L37.2809 21.737C38.2086 21.8033 38.5267 21.8828 39.2026 22.2406ZM13.902 25.1033C13.902 26.3492 13.902 26.3757 14.3128 26.76L14.7237 27.1444L14.6309 28.2046C14.5514 29.1059 14.4984 29.2649 14.3128 29.2119C14.1935 29.1721 13.3851 28.9203 12.5104 28.6685C8.49459 27.4624 8.73316 27.542 8.73316 27.2371C8.73316 26.76 9.32956 25.6335 9.84644 25.1166C10.7212 24.2419 11.6754 23.8575 13.014 23.8443L13.902 23.831V25.1033ZM18.143 24.56C18.143 25.2756 18.1298 25.2889 17.6129 25.554L17.0828 25.819L16.5526 25.554C16.0358 25.2889 16.0225 25.2756 16.0225 24.56V23.831H17.0828H18.143V24.56ZM22.5166 24.0431C22.5829 24.1093 22.5829 24.3744 22.5166 24.6925C22.4504 24.9841 22.3841 26.9323 22.3841 29.0131V32.8035L21.9733 32.8963C21.7479 32.9361 21.2178 32.9758 20.7937 32.9758H20.0383L19.9587 32.3397C19.9057 31.9951 19.7732 30.6963 19.6539 29.4372L19.4286 27.1576L19.8527 26.76C20.2636 26.3757 20.2636 26.3624 20.2636 25.0901V23.7913L21.3238 23.8575C21.9202 23.8973 22.4504 23.9768 22.5166 24.0431ZM44.3714 25.2889L44.8485 26.6805L45.816 27.1841L46.7703 27.6877V29.9143V32.1541L45.6172 32.3529C44.9678 32.4722 44.2654 32.5915 44.0268 32.618L43.6027 32.6577L43.5497 28.6155C43.5232 26.3889 43.4437 24.3877 43.3907 24.1889C43.2979 23.8443 43.3244 23.8178 43.5895 23.8575C43.8413 23.884 43.9738 24.1226 44.3714 25.2889ZM49.3149 24.5069C49.1294 25.1033 49.0233 25.2226 48.4667 25.5009L47.8305 25.819L47.1944 25.5009C46.6377 25.2226 46.5317 25.1033 46.3462 24.5069L46.1341 23.831H47.8305H49.527L49.3149 24.5069ZM53.9006 24.2816C54.6693 24.666 55.4115 25.3552 55.7295 25.9648C55.8356 26.1901 55.9151 26.3889 55.8886 26.4154C55.8621 26.4287 55.3187 26.6142 54.656 26.8263C53.0656 27.3432 52.9728 27.5022 53.3439 29.0396L53.6222 30.1661L51.4222 30.789C50.2161 31.1336 49.1426 31.4517 49.0631 31.4782C48.9306 31.5312 48.8908 31.1071 48.8908 29.6227V27.6877L49.8583 27.1841L50.8125 26.6805L51.2366 25.4877C51.462 24.825 51.6873 24.1756 51.727 24.0431C51.78 23.8178 51.8861 23.8045 52.509 23.8708C52.9066 23.9105 53.5295 24.0961 53.9006 24.2816ZM33.6362 28.695C33.7952 30.2191 33.9543 31.624 33.994 31.8493C34.0471 32.2071 33.994 32.2734 33.3844 32.6047C33.0265 32.8168 32.6952 32.9758 32.6555 32.9758C32.6157 32.9758 32.4567 32.7505 32.2711 32.4722L31.953 31.9818L32.2976 28.9601L32.6289 25.9516H32.9868H33.3446L33.6362 28.695ZM17.6262 30.3252C17.7454 31.5312 17.8382 32.5252 17.825 32.5385C17.8117 32.5517 17.4936 32.4722 17.1093 32.3662C16.3141 32.1276 16.3406 32.2867 16.5659 29.9408C16.7382 28.0588 16.7514 28.0456 17.1093 28.0986C17.4008 28.1384 17.4274 28.2311 17.6262 30.3252ZM19.4949 51.6365C19.7467 51.8884 19.9057 52.2064 19.9587 52.5643C20.025 53.0414 19.9455 53.2534 19.0973 54.7378C17.931 56.7788 17.6792 57.0307 16.8044 57.0307C16.2478 57.0307 16.102 56.9644 15.7309 56.5933C15.3598 56.2222 15.2936 56.0764 15.2936 55.533C15.3068 55.0029 15.4394 54.6716 16.2346 53.3197C17.3081 51.4775 17.7719 51.0666 18.5936 51.1727C18.925 51.2257 19.2563 51.3847 19.4949 51.6365ZM24.1733 53.0414C24.7299 53.28 25.0613 53.7836 25.0878 54.433C25.0878 54.8439 24.836 55.3872 23.6697 57.4415C22.8745 58.8199 22.0925 60.0789 21.907 60.238C21.1913 60.8874 19.9455 60.6753 19.5081 59.8404C19.137 59.1114 19.3358 58.5283 20.7539 56.1029C22.4901 53.1474 22.3841 53.28 22.848 53.0546C23.3516 52.8161 23.6034 52.8028 24.1733 53.0414ZM28.2951 56.6463C28.5469 56.7656 28.8517 57.0439 28.971 57.2692C29.3156 57.9451 29.1301 58.5945 28.1228 60.344C27.1553 62.0007 26.7312 62.3983 25.9625 62.3983C25.4456 62.3983 24.7697 61.9079 24.5444 61.3778C24.2793 60.7283 24.3854 60.4103 25.5119 58.4753C26.6782 56.474 27.1951 56.1294 28.2951 56.6463ZM32.7482 60.503C33.3181 61.0729 33.3711 61.6958 32.9205 62.5838C32.3639 63.6838 31.9133 64.0549 31.1313 64.0549C30.5747 64.0549 30.4156 63.9887 30.071 63.6573C29.5144 63.0874 29.4216 62.4513 29.806 61.6693C30.1638 60.9271 30.6807 60.291 31.0518 60.1319C31.5422 59.9199 32.3374 60.0922 32.7482 60.503Z" fill="#1AA5B9"/>
</svg>
