<svg width="459" height="537" viewBox="0 0 459 537" fill="none" xmlns="http://www.w3.org/2000/svg">
<path d="M457.817 211.039C465.487 334.943 309.264 452.262 249.459 470.502C123.757 508.839 -74.7705 469.216 30.7712 313.961C78.0406 244.426 143.473 271.106 143.746 220.062C144.424 93.3041 131.175 6.05271 219.581 0.579905C343.485 -7.09031 450.147 87.1356 457.817 211.039Z" fill="#1AA5B9" fill-opacity="0.76"/>
<path d="M343.841 513.857C343.841 526.271 333.777 536.334 321.363 536.334C308.949 536.334 298.885 526.271 298.885 513.857C298.885 501.443 308.949 491.379 321.363 491.379C333.777 491.379 343.841 501.443 343.841 513.857Z" fill="#1AA5B9" fill-opacity="0.76"/>
</svg>
